<svg width="150" height="112" viewBox="0 0 150 112" fill="none" xmlns="http://www.w3.org/2000/svg">
<rect width="150" height="112" rx="10" fill="#CCE1D7"/>
<path d="M81.6162 56.9167H68.2829C62.5829 56.9167 60.3662 54.7001 60.3662 49.0001V35.6667C60.3662 34.9834 60.9329 34.4167 61.6162 34.4167H88.2829C88.9662 34.4167 89.5329 34.9834 89.5329 35.6667V49.0001C89.5329 54.7001 87.3162 56.9167 81.6162 56.9167ZM62.8662 36.9167V49.0001C62.8662 53.3001 63.9829 54.4167 68.2829 54.4167H81.6162C85.9162 54.4167 87.0329 53.3001 87.0329 49.0001V36.9167H62.8662Z" fill="#026937"/>
<path d="M87.4997 36.9166H62.4997C59.583 36.9166 57.9164 35.2499 57.9164 32.3333V30.6666C57.9164 27.7499 59.583 26.0833 62.4997 26.0833H87.4997C90.333 26.0833 92.083 27.8333 92.083 30.6666V32.3333C92.083 35.1666 90.333 36.9166 87.4997 36.9166ZM62.4997 28.5833C60.983 28.5833 60.4164 29.1499 60.4164 30.6666V32.3333C60.4164 33.8499 60.983 34.4166 62.4997 34.4166H87.4997C88.9664 34.4166 89.583 33.7999 89.583 32.3333V30.6666C89.583 29.1999 88.9664 28.5833 87.4997 28.5833H62.4997Z" fill="#026937"/>
<path d="M74.3993 28.5835H65.1993C64.8493 28.5835 64.516 28.4335 64.2827 28.1835C63.266 27.0668 63.2993 25.3501 64.366 24.2835L66.7327 21.9168C67.8327 20.8168 69.6493 20.8168 70.7493 21.9168L75.2827 26.4501C75.6327 26.8001 75.7493 27.3501 75.5493 27.8168C75.366 28.2835 74.916 28.5835 74.3993 28.5835ZM66.116 26.0835H71.3993L68.9827 23.6835C68.8493 23.5501 68.6327 23.5501 68.4993 23.6835L66.1327 26.0501C66.1327 26.0668 66.116 26.0668 66.116 26.0835Z" fill="#026937"/>
<path d="M84.783 28.5835H75.583C75.083 28.5835 74.6163 28.2835 74.433 27.8168C74.233 27.3501 74.3497 26.8168 74.6997 26.4501L79.233 21.9168C80.333 20.8168 82.1497 20.8168 83.2497 21.9168L85.6163 24.2835C86.683 25.3501 86.733 27.0668 85.6997 28.1835C85.4663 28.4335 85.133 28.5835 84.783 28.5835ZM78.6163 26.0835H83.8997C83.883 26.0668 83.883 26.0668 83.8663 26.0501L81.4997 23.6835C81.3663 23.5501 81.1497 23.5501 81.0163 23.6835L78.6163 26.0835Z" fill="#026937"/>
<path d="M71.5674 47.1667C71.1008 47.1667 70.6174 47.0501 70.1841 46.8167C69.2341 46.3001 68.6508 45.3167 68.6508 44.2501V35.6667C68.6508 34.9834 69.2174 34.4167 69.9008 34.4167H79.9674C80.6508 34.4167 81.2174 34.9834 81.2174 35.6667V44.2167C81.2174 45.3001 80.6341 46.2834 79.6841 46.7834C78.7341 47.3001 77.5841 47.2334 76.6841 46.6334L75.2008 45.6334C75.0674 45.5334 74.8841 45.5334 74.7341 45.6334L73.1674 46.6667C72.6841 47.0001 72.1174 47.1667 71.5674 47.1667ZM71.1508 36.9167V44.2334C71.1508 44.4501 71.2841 44.5501 71.3674 44.6001C71.4508 44.6501 71.6174 44.7001 71.8008 44.5834L73.3674 43.5501C74.3508 42.9001 75.6174 42.9001 76.5841 43.5501L78.0674 44.5501C78.2508 44.6667 78.4174 44.6167 78.5008 44.5667C78.5841 44.5167 78.7174 44.4167 78.7174 44.2001V36.9001H71.1508V36.9167Z" fill="#026937"/>
<path d="M54.38 87H50.892V75.544H54.348C57.804 75.544 60.108 77.848 60.108 81.272C60.108 84.696 57.82 87 54.38 87ZM54.3 76.6H52.044V85.944H54.332C57.132 85.944 58.924 84.12 58.924 81.272C58.924 78.408 57.132 76.6 54.3 76.6ZM61.4049 83.128C61.4049 80.76 63.0689 79.048 65.3409 79.048C67.6129 79.048 69.2769 80.76 69.2769 83.128C69.2769 85.48 67.6129 87.192 65.3409 87.192C63.0689 87.192 61.4049 85.48 61.4049 83.128ZM62.5249 83.112C62.5249 84.936 63.6769 86.2 65.3409 86.2C66.9889 86.2 68.1569 84.936 68.1569 83.112C68.1569 81.32 66.9889 80.04 65.3409 80.04C63.6769 80.04 62.5249 81.32 62.5249 83.112ZM72.1466 87H71.0426V79.256H72.0026L72.1626 80.6C72.6746 79.608 73.6986 79.048 74.8186 79.048C76.9466 79.048 77.8266 80.312 77.8266 82.264V87H76.7226V82.504C76.7226 80.696 75.9066 80.056 74.6266 80.056C73.0426 80.056 72.1466 81.208 72.1466 82.952V87ZM82.251 87.192C80.603 87.192 79.627 86.264 79.627 84.904C79.627 83.48 80.715 82.584 82.523 82.44L85.083 82.232V81.976C85.083 80.456 84.171 79.976 83.035 79.976C81.691 79.976 80.891 80.584 80.891 81.624H79.883C79.883 80.056 81.163 79.048 83.067 79.048C84.859 79.048 86.171 79.944 86.171 81.992V87H85.243L85.099 85.64C84.619 86.616 83.563 87.192 82.251 87.192ZM82.507 86.296C84.139 86.296 85.083 85.16 85.083 83.48V83.064L82.795 83.24C81.339 83.368 80.747 84.008 80.747 84.872C80.747 85.816 81.451 86.296 82.507 86.296ZM90.0218 87H88.9338V80.184H87.3818V79.256H88.9338V76.808H90.0218V79.256H91.5738V80.184H90.0218V87ZM96.1813 87.192C93.9093 87.192 92.3893 85.56 92.3893 83.128C92.3893 80.712 93.8932 79.048 96.1013 79.048C98.1973 79.048 99.6213 80.536 99.6213 82.728V83.272H93.4613C93.5413 85.16 94.5333 86.248 96.1973 86.248C97.4613 86.248 98.2773 85.704 98.5653 84.68H99.6213C99.2053 86.312 98.0053 87.192 96.1813 87.192ZM96.1013 79.992C94.6453 79.992 93.6853 80.952 93.4933 82.472H98.5173C98.5173 80.984 97.5573 79.992 96.1013 79.992Z" fill="#121212"/>
</svg>
