<svg width="150" height="112" viewBox="0 0 150 112" fill="none" xmlns="http://www.w3.org/2000/svg">
<rect width="150" height="112" rx="10" fill="#CCE1D7"/>
<path d="M66.9497 56.9166C62.9831 56.9166 59.7332 54.0333 59.7332 50.4833V47.0833C59.7332 46.3999 60.2998 45.8333 60.9832 45.8333C61.6665 45.8333 62.2332 46.3999 62.2332 47.0833C62.2332 49.1666 64.2497 50.7333 66.9497 50.7333C69.6497 50.7333 71.6664 49.1666 71.6664 47.0833C71.6664 46.3999 72.2331 45.8333 72.9164 45.8333C73.5998 45.8333 74.1664 46.3999 74.1664 47.0833V50.4833C74.1664 54.0333 70.9331 56.9166 66.9497 56.9166ZM62.6664 52.1166C63.3997 53.4833 65.0497 54.4166 66.9497 54.4166C68.8497 54.4166 70.4998 53.4666 71.2331 52.1166C70.0498 52.8333 68.5831 53.2499 66.9497 53.2499C65.3164 53.2499 63.8497 52.8333 62.6664 52.1166Z" fill="#026937"/>
<path d="M66.9497 48.6665C64.2164 48.6665 61.7665 47.4165 60.5498 45.4331C60.0165 44.5665 59.7332 43.5498 59.7332 42.5165C59.7332 40.7665 60.4998 39.1331 61.8998 37.9164C64.5998 35.5498 69.2498 35.5499 71.9664 37.8999C73.3664 39.1332 74.1498 40.7665 74.1498 42.5165C74.1498 43.5498 73.8664 44.5665 73.3331 45.4331C72.1331 47.4165 69.6831 48.6665 66.9497 48.6665ZM66.9497 38.5832C65.6497 38.5832 64.4498 39.0165 63.5498 39.7998C62.6998 40.5331 62.2332 41.4998 62.2332 42.5165C62.2332 43.0998 62.3831 43.6332 62.6831 44.1332C63.4498 45.3999 65.0831 46.1832 66.9497 46.1832C68.8164 46.1832 70.4497 45.3999 71.1997 44.1499C71.4997 43.6665 71.6498 43.1165 71.6498 42.5331C71.6498 41.5165 71.1831 40.5498 70.3331 39.7998C69.4498 39.0165 68.2497 38.5832 66.9497 38.5832Z" fill="#026937"/>
<path d="M66.9497 53.2499C62.8331 53.2499 59.7332 50.5999 59.7332 47.0999V42.5166C59.7332 38.9666 62.9664 36.0833 66.9497 36.0833C68.8331 36.0833 70.6331 36.7333 71.9831 37.9C73.3831 39.1333 74.1664 40.7666 74.1664 42.5166V47.0999C74.1664 50.5999 71.0664 53.2499 66.9497 53.2499ZM66.9497 38.5833C64.3497 38.5833 62.2332 40.3499 62.2332 42.5166V47.0999C62.2332 49.1832 64.2497 50.7499 66.9497 50.7499C69.6497 50.7499 71.6664 49.1832 71.6664 47.0999V42.5166C71.6664 41.4999 71.1998 40.5332 70.3498 39.7832C69.4498 39.0165 68.2497 38.5833 66.9497 38.5833Z" fill="#026937"/>
<path d="M86.7335 43.6665C84.2168 43.6665 82.0835 41.7999 81.8835 39.3999C81.7502 38.0165 82.2502 36.6666 83.2502 35.6832C84.0835 34.8166 85.2668 34.3333 86.5168 34.3333H90.0002C91.6502 34.3833 92.9168 35.6832 92.9168 37.2832V40.7166C92.9168 42.3166 91.6502 43.6165 90.0502 43.6665H86.7335ZM89.9501 36.8333H86.5335C85.9501 36.8333 85.4169 37.0499 85.0335 37.4499C84.5502 37.9166 84.3168 38.5499 84.3835 39.1832C84.4668 40.2832 85.5335 41.1665 86.7335 41.1665H90.0002C90.2168 41.1665 90.4168 40.9666 90.4168 40.7166V37.2832C90.4168 37.0332 90.2168 36.8499 89.9501 36.8333Z" fill="#026937"/>
<path d="M81.6674 54.4166H77.5007C76.8174 54.4166 76.2507 53.8499 76.2507 53.1666C76.2507 52.4833 76.8174 51.9166 77.5007 51.9166H81.6674C85.9674 51.9166 88.7507 49.1333 88.7507 44.8333V43.6666H86.734C84.2174 43.6666 82.0841 41.7999 81.8841 39.3999C81.7507 38.0166 82.2508 36.6666 83.2508 35.6833C84.0841 34.8166 85.2674 34.3333 86.5174 34.3333H88.734V33.1666C88.734 29.2666 86.4508 26.5832 82.7508 26.1499C82.3508 26.0832 82.0007 26.0833 81.6507 26.0833H66.6507C66.2507 26.0833 65.8674 26.1166 65.484 26.1666C61.8174 26.6332 59.5674 29.2999 59.5674 33.1666V36.4999C59.5674 37.1833 59.0007 37.7499 58.3174 37.7499C57.634 37.7499 57.0674 37.1833 57.0674 36.4999V33.1666C57.0674 28.0333 60.2341 24.3166 65.1508 23.6999C65.6008 23.6333 66.1174 23.5833 66.6507 23.5833H81.6507C82.0507 23.5833 82.5674 23.5999 83.1007 23.6832C88.0174 24.2499 91.234 27.9833 91.234 33.1666V35.5833C91.234 36.2666 90.6674 36.8333 89.984 36.8333H86.5174C85.934 36.8333 85.4007 37.0499 85.0174 37.4499C84.5341 37.9166 84.3007 38.5499 84.3674 39.1832C84.4507 40.2832 85.5174 41.1666 86.7174 41.1666H90.0007C90.6841 41.1666 91.2507 41.7332 91.2507 42.4166V44.8333C91.2507 50.5666 87.4007 54.4166 81.6674 54.4166Z" fill="#026937"/>
<path d="M38.756 87H31.892V75.544H38.74V76.6H33.044V80.728H38.212V81.768H33.044V85.944H38.756V87ZM43.0791 87.192C41.4311 87.192 40.4551 86.264 40.4551 84.904C40.4551 83.48 41.5431 82.584 43.3511 82.44L45.9111 82.232V81.976C45.9111 80.456 44.9991 79.976 43.8631 79.976C42.5191 79.976 41.7191 80.584 41.7191 81.624H40.7111C40.7111 80.056 41.9911 79.048 43.8951 79.048C45.6871 79.048 46.9991 79.944 46.9991 81.992V87H46.0711L45.9271 85.64C45.4471 86.616 44.3911 87.192 43.0791 87.192ZM43.3351 86.296C44.9671 86.296 45.9111 85.16 45.9111 83.48V83.064L43.6231 83.24C42.1671 83.368 41.5751 84.008 41.5751 84.872C41.5751 85.816 42.2791 86.296 43.3351 86.296ZM53.2625 79.16V80.152H52.6545C51.2305 80.152 50.3185 81.112 50.3185 82.584V87H49.2145V79.256H50.2545L50.3345 80.456C50.6385 79.624 51.4545 79.08 52.5425 79.08C52.7825 79.08 52.9905 79.096 53.2625 79.16ZM55.8341 87H54.7301V79.256H55.6901L55.8501 80.6C56.3621 79.608 57.3861 79.048 58.5061 79.048C60.6341 79.048 61.5141 80.312 61.5141 82.264V87H60.4101V82.504C60.4101 80.696 59.5941 80.056 58.3141 80.056C56.7301 80.056 55.8341 81.208 55.8341 82.952V87ZM69.544 87H68.392V75.544H72.664C74.984 75.544 76.392 76.824 76.392 78.856C76.392 80.504 75.528 81.656 74.056 82.056L76.504 87H75.224L72.888 82.248H69.544V87ZM69.544 76.584V81.208H72.696C74.28 81.208 75.208 80.344 75.208 78.888C75.208 77.4 74.232 76.584 72.664 76.584H69.544ZM81.0719 87.192C78.7999 87.192 77.2799 85.56 77.2799 83.128C77.2799 80.712 78.7839 79.048 80.9919 79.048C83.0879 79.048 84.5119 80.536 84.5119 82.728V83.272H78.3519C78.4319 85.16 79.4239 86.248 81.0879 86.248C82.3519 86.248 83.1679 85.704 83.4559 84.68H84.5119C84.0959 86.312 82.8959 87.192 81.0719 87.192ZM80.9919 79.992C79.5359 79.992 78.5759 80.952 78.3839 82.472H83.4079C83.4079 80.984 82.4479 79.992 80.9919 79.992ZM87.7059 87L85.1459 79.256H86.2819L87.8019 83.928C87.9779 84.44 88.1219 84.968 88.2819 85.592C88.4099 84.968 88.6659 84.184 88.7459 83.928L90.2819 79.256H91.4179L92.9379 83.928C93.0819 84.344 93.2739 85.016 93.4179 85.592C93.5779 84.952 93.6099 84.76 93.8819 83.928L95.4179 79.256H96.5699L93.9459 87H92.8739L91.2739 82.136C91.0819 81.56 90.9539 81.08 90.8579 80.616C90.7459 81.032 90.6179 81.496 90.4099 82.136L88.8099 87H87.7059ZM99.8291 87.192C98.1811 87.192 97.2051 86.264 97.2051 84.904C97.2051 83.48 98.2931 82.584 100.101 82.44L102.661 82.232V81.976C102.661 80.456 101.749 79.976 100.613 79.976C99.2691 79.976 98.4691 80.584 98.4691 81.624H97.4611C97.4611 80.056 98.7411 79.048 100.645 79.048C102.437 79.048 103.749 79.944 103.749 81.992V87H102.821L102.677 85.64C102.197 86.616 101.141 87.192 99.8291 87.192ZM100.085 86.296C101.717 86.296 102.661 85.16 102.661 83.48V83.064L100.373 83.24C98.9171 83.368 98.3251 84.008 98.3251 84.872C98.3251 85.816 99.0291 86.296 100.085 86.296ZM110.013 79.16V80.152H109.405C107.981 80.152 107.069 81.112 107.069 82.584V87H105.965V79.256H107.005L107.085 80.456C107.389 79.624 108.205 79.08 109.293 79.08C109.533 79.08 109.741 79.096 110.013 79.16ZM114.223 87.192C111.967 87.192 110.639 85.464 110.639 83.144C110.639 80.808 111.967 79.048 114.271 79.048C115.551 79.048 116.575 79.608 117.119 80.728V75.336H118.223V87H117.263L117.151 85.416C116.607 86.616 115.519 87.192 114.223 87.192ZM114.415 86.184C116.111 86.184 117.103 84.904 117.103 83.112C117.103 81.336 116.111 80.04 114.415 80.04C112.735 80.04 111.759 81.336 111.759 83.112C111.759 84.904 112.735 86.184 114.415 86.184Z" fill="#121212"/>
</svg>
