<svg width="677" height="248" viewBox="0 0 677 248" fill="none" xmlns="http://www.w3.org/2000/svg">
<g clip-path="url(#clip0_843_21302)">
<rect width="677" height="248" rx="20" fill="url(#paint0_linear_843_21302)"/>
<path d="M53.5066 156H49.7741V138.95H56.3635C60.5107 138.95 62.8608 140.955 62.8608 144.48C62.8608 146.692 61.9162 148.259 60.0269 149.226L63.0221 156H58.944L56.3866 150.033H53.5066V156ZM53.5066 142.268V146.761H56.3405C57.9763 146.761 58.921 145.932 58.921 144.48C58.921 143.052 58.0224 142.268 56.3635 142.268H53.5066ZM69.7341 156.3C66.2551 156.3 63.7667 153.765 63.7667 150.217C63.7667 146.623 66.1859 144.111 69.665 144.111C73.2823 144.111 75.5402 146.484 75.5402 150.24V151.139L67.1767 151.185C67.384 152.705 68.2365 153.42 69.8032 153.42C71.1395 153.42 72.0842 152.936 72.3376 152.106H75.5863C75.1715 154.664 72.8906 156.3 69.7341 156.3ZM69.688 146.991C68.2826 146.991 67.4992 147.613 67.2227 148.996H72.0151C72.0151 147.775 71.1165 146.991 69.688 146.991ZM77.0192 150.056C77.0192 146.346 79.2541 144.111 82.4567 144.111C84.0925 144.111 85.544 144.826 86.1892 145.885L86.3735 144.48H89.7143V161.53H86.1661V154.848C85.498 155.724 84.0234 156.323 82.4336 156.323C79.0007 156.323 77.0192 153.696 77.0192 150.056ZM80.5904 150.24C80.5904 151.945 81.6503 153.12 83.3322 153.12C84.9911 153.12 86.1431 151.968 86.1431 150.24C86.1431 148.512 84.9911 147.36 83.3322 147.36C81.6503 147.36 80.5904 148.535 80.5904 150.24ZM100.028 144.48H103.576V156H100.235L100.005 154.71C99.2908 155.654 97.8623 156.3 96.4799 156.3C93.8534 156.3 92.2406 154.548 92.2406 151.715V144.48H95.7887V150.424C95.7887 152.314 96.4339 153.143 97.8854 153.143C99.406 153.143 100.028 152.36 100.028 150.47V144.48ZM111.359 156.3C107.88 156.3 105.392 153.765 105.392 150.217C105.392 146.623 107.811 144.111 111.29 144.111C114.907 144.111 117.165 146.484 117.165 150.24V151.139L108.802 151.185C109.009 152.705 109.862 153.42 111.428 153.42C112.765 153.42 113.709 152.936 113.963 152.106H117.211C116.797 154.664 114.516 156.3 111.359 156.3ZM111.313 146.991C109.908 146.991 109.124 147.613 108.848 148.996H113.64C113.64 147.775 112.742 146.991 111.313 146.991ZM118.437 152.36H121.801C121.847 153.166 122.446 153.65 123.529 153.65C124.635 153.65 125.142 153.258 125.142 152.659C125.142 152.314 124.957 151.945 124.105 151.761L121.985 151.3C119.865 150.839 118.829 149.917 118.829 147.89C118.829 145.494 120.879 144.111 123.644 144.111C126.317 144.111 128.183 145.678 128.183 148.005H124.819C124.819 147.222 124.335 146.692 123.483 146.692C122.676 146.692 122.169 147.107 122.169 147.729C122.169 148.259 122.607 148.558 123.414 148.742L125.556 149.203C127.446 149.618 128.482 150.493 128.482 152.337C128.482 154.802 126.386 156.3 123.39 156.3C120.349 156.3 118.437 154.687 118.437 152.36ZM134.99 156H131.442V147.429H129.253V144.48H131.442V140.909H134.99V144.48H137.179V147.429H134.99V156ZM152.221 150.332H149.042V156H145.309V138.95H152.221C155.7 138.95 158.027 141.231 158.027 144.641C158.027 148.051 155.7 150.332 152.221 150.332ZM151.392 142.268H149.042V147.014H151.392C153.189 147.014 154.087 146.231 154.087 144.641C154.087 143.052 153.189 142.268 151.392 142.268ZM161.697 142.683C160.568 142.683 159.67 141.784 159.67 140.655C159.67 139.526 160.568 138.651 161.697 138.651C162.803 138.651 163.702 139.526 163.702 140.655C163.702 141.784 162.803 142.683 161.697 142.683ZM159.946 156V144.48H163.494V156H159.946ZM165.534 150.194C165.534 146.646 167.976 144.111 171.432 144.111C174.842 144.111 177.1 145.978 177.331 148.996H173.76C173.506 147.844 172.792 147.291 171.571 147.291C170.073 147.291 169.105 148.42 169.105 150.194C169.105 152.037 170.004 153.12 171.525 153.12C172.769 153.12 173.529 152.544 173.76 151.415H177.331C177.1 154.318 174.75 156.3 171.525 156.3C167.884 156.3 165.534 153.88 165.534 150.194ZM182.822 156H179.274V138.628H182.822V148.627L186.554 144.48H191.001L186.67 149.042L190.863 156H186.762L184.181 151.692L182.822 153.12V156ZM200.108 144.48H203.656V156H200.315L200.085 154.71C199.371 155.654 197.942 156.3 196.56 156.3C193.933 156.3 192.321 154.548 192.321 151.715V144.48H195.869V150.424C195.869 152.314 196.514 153.143 197.965 153.143C199.486 153.143 200.108 152.36 200.108 150.47V144.48ZM206.319 161.53V144.48H209.66L209.844 145.885C210.489 144.826 211.941 144.111 213.576 144.111C216.779 144.111 219.014 146.346 219.014 150.056C219.014 153.696 217.032 156.323 213.599 156.323C212.01 156.323 210.535 155.724 209.867 154.848V161.53H206.319ZM209.89 150.24C209.89 151.968 211.042 153.12 212.701 153.12C214.383 153.12 215.443 151.945 215.443 150.24C215.443 148.535 214.383 147.36 212.701 147.36C211.042 147.36 209.89 148.512 209.89 150.24Z" fill="#02582E"/>
<path d="M50.544 184H49.392V172.544H53.664C55.984 172.544 57.392 173.824 57.392 175.856C57.392 177.504 56.528 178.656 55.056 179.056L57.504 184H56.224L53.888 179.248H50.544V184ZM50.544 173.584V178.208H53.696C55.28 178.208 56.208 177.344 56.208 175.888C56.208 174.4 55.232 173.584 53.664 173.584H50.544ZM62.0719 184.192C59.7999 184.192 58.2799 182.56 58.2799 180.128C58.2799 177.712 59.7839 176.048 61.9919 176.048C64.0879 176.048 65.5119 177.536 65.5119 179.728V180.272H59.3519C59.4319 182.16 60.4239 183.248 62.0879 183.248C63.3519 183.248 64.1679 182.704 64.4559 181.68H65.5119C65.0959 183.312 63.8959 184.192 62.0719 184.192ZM61.9919 176.992C60.5359 176.992 59.5759 177.952 59.3839 179.472H64.4079C64.4079 177.984 63.4479 176.992 61.9919 176.992ZM66.733 180.096C66.733 177.76 68.077 176.048 70.317 176.048C71.613 176.048 72.685 176.624 73.245 177.824L73.357 176.256H74.317V187.376H73.213V182.512C72.669 183.632 71.629 184.192 70.317 184.192C68.029 184.192 66.733 182.432 66.733 180.096ZM67.853 180.128C67.853 181.904 68.829 183.2 70.509 183.2C72.205 183.2 73.197 181.904 73.197 180.128C73.197 178.336 72.205 177.056 70.509 177.056C68.829 177.056 67.853 178.336 67.853 180.128ZM82.0608 176.256H83.1648V184H82.2048L82.0608 182.688C81.6288 183.584 80.5568 184.192 79.3408 184.192C77.5168 184.192 76.5247 182.944 76.5247 181.056V176.24H77.6448V180.704C77.6448 182.544 78.4608 183.2 79.6927 183.2C81.1808 183.2 82.0608 182.208 82.0608 180.368V176.256ZM88.5563 184.192C86.2843 184.192 84.7643 182.56 84.7643 180.128C84.7643 177.712 86.2682 176.048 88.4763 176.048C90.5723 176.048 91.9963 177.536 91.9963 179.728V180.272H85.8363C85.9163 182.16 86.9083 183.248 88.5723 183.248C89.8363 183.248 90.6523 182.704 90.9403 181.68H91.9963C91.5803 183.312 90.3803 184.192 88.5563 184.192ZM88.4763 176.992C87.0203 176.992 86.0603 177.952 85.8683 179.472H90.8923C90.8923 177.984 89.9323 176.992 88.4763 176.992ZM93.1054 181.824H94.1614C94.1614 182.72 94.8334 183.28 95.9214 183.28C97.1214 183.28 97.8254 182.768 97.8254 181.936C97.8254 181.296 97.5054 180.928 96.5934 180.704L95.2654 180.368C93.9214 180.032 93.2654 179.328 93.2654 178.272C93.2654 176.912 94.4014 176.048 96.0654 176.048C97.6974 176.048 98.7534 176.944 98.8014 178.384H97.7294C97.6974 177.488 97.0734 176.96 96.0334 176.96C94.9454 176.96 94.3374 177.424 94.3374 178.256C94.3374 178.848 94.7534 179.264 95.6014 179.472L96.9294 179.808C98.2734 180.144 98.8814 180.768 98.8814 181.888C98.8814 183.28 97.6974 184.192 95.9374 184.192C94.1934 184.192 93.1054 183.264 93.1054 181.824ZM102.475 184H101.387V177.184H99.8349V176.256H101.387V173.808H102.475V176.256H104.027V177.184H102.475V184ZM109.118 187.376V186.464H109.966C110.638 186.464 111.31 186.416 111.694 185.376L112.03 184.464L108.894 176.256H110.062L112.558 183.008L115.006 176.256H116.142L112.59 185.776C112.142 186.992 111.39 187.488 110.286 187.488C109.822 187.488 109.47 187.456 109.118 187.376ZM116.624 180.128C116.624 177.76 118.288 176.048 120.56 176.048C122.832 176.048 124.496 177.76 124.496 180.128C124.496 182.48 122.832 184.192 120.56 184.192C118.288 184.192 116.624 182.48 116.624 180.128ZM117.744 180.112C117.744 181.936 118.896 183.2 120.56 183.2C122.208 183.2 123.376 181.936 123.376 180.112C123.376 178.32 122.208 177.04 120.56 177.04C118.896 177.04 117.744 178.32 117.744 180.112ZM131.514 176.256H132.618V184H131.658L131.514 182.688C131.082 183.584 130.01 184.192 128.794 184.192C126.97 184.192 125.978 182.944 125.978 181.056V176.24H127.098V180.704C127.098 182.544 127.914 183.2 129.146 183.2C130.634 183.2 131.514 182.208 131.514 180.368V176.256ZM138.966 176.16V177.152H138.358C136.934 177.152 136.022 178.112 136.022 179.584V184H134.918V176.256H135.958L136.038 177.456C136.342 176.624 137.158 176.08 138.246 176.08C138.486 176.08 138.694 176.096 138.966 176.16ZM146.503 184L143.943 176.256H145.079L146.599 180.928C146.775 181.44 146.919 181.968 147.079 182.592C147.207 181.968 147.463 181.184 147.543 180.928L149.079 176.256H150.215L151.735 180.928C151.879 181.344 152.071 182.016 152.215 182.592C152.375 181.952 152.407 181.76 152.679 180.928L154.215 176.256H155.367L152.743 184H151.671L150.071 179.136C149.879 178.56 149.751 178.08 149.655 177.616C149.543 178.032 149.415 178.496 149.207 179.136L147.607 184H146.503ZM158.626 184.192C156.978 184.192 156.002 183.264 156.002 181.904C156.002 180.48 157.09 179.584 158.898 179.44L161.458 179.232V178.976C161.458 177.456 160.546 176.976 159.41 176.976C158.066 176.976 157.266 177.584 157.266 178.624H156.258C156.258 177.056 157.538 176.048 159.442 176.048C161.234 176.048 162.546 176.944 162.546 178.992V184H161.618L161.474 182.64C160.994 183.616 159.938 184.192 158.626 184.192ZM158.882 183.296C160.514 183.296 161.458 182.16 161.458 180.48V180.064L159.17 180.24C157.714 180.368 157.122 181.008 157.122 181.872C157.122 182.816 157.826 183.296 158.882 183.296ZM164.105 181.824H165.161C165.161 182.72 165.833 183.28 166.921 183.28C168.121 183.28 168.825 182.768 168.825 181.936C168.825 181.296 168.505 180.928 167.593 180.704L166.265 180.368C164.921 180.032 164.265 179.328 164.265 178.272C164.265 176.912 165.401 176.048 167.065 176.048C168.697 176.048 169.753 176.944 169.801 178.384H168.729C168.697 177.488 168.073 176.96 167.033 176.96C165.945 176.96 165.337 177.424 165.337 178.256C165.337 178.848 165.753 179.264 166.601 179.472L167.929 179.808C169.273 180.144 169.881 180.768 169.881 181.888C169.881 183.28 168.697 184.192 166.937 184.192C165.193 184.192 164.105 183.264 164.105 181.824ZM173.475 184H172.387V177.184H170.835V176.256H172.387V173.808H173.475V176.256H175.027V177.184H173.475V184ZM179.634 184.192C177.362 184.192 175.842 182.56 175.842 180.128C175.842 177.712 177.346 176.048 179.554 176.048C181.65 176.048 183.074 177.536 183.074 179.728V180.272H176.914C176.994 182.16 177.986 183.248 179.65 183.248C180.914 183.248 181.73 182.704 182.018 181.68H183.074C182.658 183.312 181.458 184.192 179.634 184.192ZM179.554 176.992C178.098 176.992 177.138 177.952 176.946 179.472H181.97C181.97 177.984 181.01 176.992 179.554 176.992ZM189.277 187.376V176.256H190.237L190.349 177.824C190.893 176.624 191.981 176.048 193.277 176.048C195.517 176.048 196.861 177.76 196.861 180.096C196.861 182.432 195.565 184.192 193.277 184.192C191.965 184.192 190.925 183.632 190.381 182.512V187.376H189.277ZM190.397 180.128C190.397 181.904 191.389 183.2 193.085 183.2C194.765 183.2 195.741 181.904 195.741 180.128C195.741 178.336 194.765 177.056 193.085 177.056C191.389 177.056 190.397 178.336 190.397 180.128ZM199.165 174.128C198.717 174.128 198.349 173.76 198.349 173.312C198.349 172.864 198.717 172.48 199.165 172.48C199.613 172.48 199.997 172.864 199.997 173.312C199.997 173.76 199.613 174.128 199.165 174.128ZM198.621 184V176.256H199.725V184H198.621ZM201.483 180.144C201.483 177.712 202.971 176.048 205.227 176.048C207.019 176.048 208.331 177.088 208.635 178.688H207.531C207.243 177.616 206.315 177.024 205.243 177.024C203.675 177.024 202.571 178.224 202.571 180.128C202.571 181.968 203.595 183.2 205.163 183.2C206.315 183.2 207.243 182.56 207.547 181.568H208.667C208.299 183.152 206.923 184.192 205.163 184.192C202.971 184.192 201.483 182.576 201.483 180.144ZM211.492 184H210.388V172.336H211.492V180.256L215.332 176.256H216.724L213.748 179.344L216.74 184H215.46L212.996 180.128L211.492 181.68V184ZM223.498 176.256H224.602V184H223.642L223.498 182.688C223.066 183.584 221.994 184.192 220.778 184.192C218.954 184.192 217.962 182.944 217.962 181.056V176.24H219.082V180.704C219.082 182.544 219.898 183.2 221.13 183.2C222.618 183.2 223.498 182.208 223.498 180.368V176.256ZM226.902 187.376V176.256H227.862L227.974 177.824C228.518 176.624 229.606 176.048 230.902 176.048C233.142 176.048 234.486 177.76 234.486 180.096C234.486 182.432 233.19 184.192 230.902 184.192C229.59 184.192 228.55 183.632 228.006 182.512V187.376H226.902ZM228.022 180.128C228.022 181.904 229.014 183.2 230.71 183.2C232.39 183.2 233.366 181.904 233.366 180.128C233.366 178.336 232.39 177.056 230.71 177.056C229.014 177.056 228.022 178.336 228.022 180.128ZM242.907 184.192C241.259 184.192 240.283 183.264 240.283 181.904C240.283 180.48 241.371 179.584 243.179 179.44L245.739 179.232V178.976C245.739 177.456 244.827 176.976 243.691 176.976C242.347 176.976 241.547 177.584 241.547 178.624H240.539C240.539 177.056 241.819 176.048 243.723 176.048C245.515 176.048 246.827 176.944 246.827 178.992V184H245.899L245.755 182.64C245.275 183.616 244.219 184.192 242.907 184.192ZM243.163 183.296C244.795 183.296 245.739 182.16 245.739 180.48V180.064L243.451 180.24C241.995 180.368 241.403 181.008 241.403 181.872C241.403 182.816 242.107 183.296 243.163 183.296ZM250.678 184H249.59V177.184H248.038V176.256H249.59V173.808H250.678V176.256H252.23V177.184H250.678V184ZM257.321 187.376V186.464H258.169C258.841 186.464 259.513 186.416 259.897 185.376L260.233 184.464L257.097 176.256H258.265L260.761 183.008L263.209 176.256H264.345L260.793 185.776C260.345 186.992 259.593 187.488 258.489 187.488C258.025 187.488 257.673 187.456 257.321 187.376ZM264.827 180.128C264.827 177.76 266.491 176.048 268.763 176.048C271.035 176.048 272.699 177.76 272.699 180.128C272.699 182.48 271.035 184.192 268.763 184.192C266.491 184.192 264.827 182.48 264.827 180.128ZM265.947 180.112C265.947 181.936 267.099 183.2 268.763 183.2C270.411 183.2 271.579 181.936 271.579 180.112C271.579 178.32 270.411 177.04 268.763 177.04C267.099 177.04 265.947 178.32 265.947 180.112ZM279.717 176.256H280.821V184H279.861L279.717 182.688C279.285 183.584 278.213 184.192 276.997 184.192C275.173 184.192 274.181 182.944 274.181 181.056V176.24H275.301V180.704C275.301 182.544 276.117 183.2 277.349 183.2C278.837 183.2 279.717 182.208 279.717 180.368V176.256ZM287.169 176.16V177.152H286.561C285.137 177.152 284.225 178.112 284.225 179.584V184H283.121V176.256H284.161L284.241 177.456C284.545 176.624 285.361 176.08 286.449 176.08C286.689 176.08 286.897 176.096 287.169 176.16ZM296.114 184.192C293.858 184.192 292.53 182.464 292.53 180.144C292.53 177.808 293.858 176.048 296.162 176.048C297.442 176.048 298.466 176.608 299.01 177.728V172.336H300.114V184H299.154L299.042 182.416C298.498 183.616 297.41 184.192 296.114 184.192ZM296.306 183.184C298.002 183.184 298.994 181.904 298.994 180.112C298.994 178.336 298.002 177.04 296.306 177.04C294.626 177.04 293.65 178.336 293.65 180.112C293.65 181.904 294.626 183.184 296.306 183.184ZM301.874 180.128C301.874 177.76 303.538 176.048 305.81 176.048C308.082 176.048 309.746 177.76 309.746 180.128C309.746 182.48 308.082 184.192 305.81 184.192C303.538 184.192 301.874 182.48 301.874 180.128ZM302.994 180.112C302.994 181.936 304.146 183.2 305.81 183.2C307.458 183.2 308.626 181.936 308.626 180.112C308.626 178.32 307.458 177.04 305.81 177.04C304.146 177.04 302.994 178.32 302.994 180.112ZM310.967 180.128C310.967 177.76 312.631 176.048 314.903 176.048C317.175 176.048 318.839 177.76 318.839 180.128C318.839 182.48 317.175 184.192 314.903 184.192C312.631 184.192 310.967 182.48 310.967 180.128ZM312.087 180.112C312.087 181.936 313.239 183.2 314.903 183.2C316.551 183.2 317.719 181.936 317.719 180.112C317.719 178.32 316.551 177.04 314.903 177.04C313.239 177.04 312.087 178.32 312.087 180.112ZM324.653 176.16V177.152H324.045C322.621 177.152 321.709 178.112 321.709 179.584V184H320.605V176.256H321.645L321.725 177.456C322.029 176.624 322.845 176.08 323.933 176.08C324.173 176.08 324.381 176.096 324.653 176.16ZM325.465 181.824H326.521C326.521 182.72 327.193 183.28 328.281 183.28C329.481 183.28 330.185 182.768 330.185 181.936C330.185 181.296 329.865 180.928 328.953 180.704L327.625 180.368C326.281 180.032 325.625 179.328 325.625 178.272C325.625 176.912 326.761 176.048 328.425 176.048C330.057 176.048 331.113 176.944 331.161 178.384H330.089C330.057 177.488 329.433 176.96 328.393 176.96C327.305 176.96 326.697 177.424 326.697 178.256C326.697 178.848 327.113 179.264 327.961 179.472L329.289 179.808C330.633 180.144 331.241 180.768 331.241 181.888C331.241 183.28 330.057 184.192 328.297 184.192C326.553 184.192 325.465 183.264 325.465 181.824ZM334.834 184H333.746V177.184H332.194V176.256H333.746V173.808H334.834V176.256H336.386V177.184H334.834V184ZM340.994 184.192C338.722 184.192 337.202 182.56 337.202 180.128C337.202 177.712 338.706 176.048 340.914 176.048C343.01 176.048 344.434 177.536 344.434 179.728V180.272H338.274C338.354 182.16 339.346 183.248 341.01 183.248C342.274 183.248 343.09 182.704 343.378 181.68H344.434C344.018 183.312 342.818 184.192 340.994 184.192ZM340.914 176.992C339.458 176.992 338.498 177.952 338.306 179.472H343.33C343.33 177.984 342.37 176.992 340.914 176.992ZM346.199 187.376V176.256H347.159L347.271 177.824C347.815 176.624 348.903 176.048 350.199 176.048C352.439 176.048 353.783 177.76 353.783 180.096C353.783 182.432 352.487 184.192 350.199 184.192C348.887 184.192 347.847 183.632 347.303 182.512V187.376H346.199ZM347.319 180.128C347.319 181.904 348.311 183.2 350.007 183.2C351.687 183.2 352.663 181.904 352.663 180.128C352.663 178.336 351.687 177.056 350.007 177.056C348.311 177.056 347.319 178.336 347.319 180.128Z" fill="#026937"/>
<g clip-path="url(#clip1_843_21302)">
<path d="M406.658 180.883L394 173.572V175.621L406.658 182.931V180.883Z" fill="#B4AEBC"/>
<path d="M434.757 164.646L406.658 180.884V182.932L434.757 166.716V164.646Z" fill="#F3EDF2"/>
<path d="M422.098 157.355L394 173.572L406.658 180.882L434.757 164.644L422.098 157.355Z" fill="#F3EDF2"/>
<g style="mix-blend-mode:multiply">
<path d="M753.371 -7.61182L830.701 37.0265L478.424 240.422L401.094 195.762L753.371 -7.61182Z" fill="#C7CCD1"/>
</g>
<path d="M611.585 106.917L551.463 141.636V164.235L611.585 129.538V106.917Z" fill="#1C1922"/>
<path d="M527.117 158.09L725.014 43.82V24.4983L527.117 138.747V158.09Z" fill="#222428"/>
<path d="M570.376 131.867C570.376 143.189 578.376 147.739 588.231 142.046C598.086 136.353 606.065 122.638 606.065 111.273C606.065 99.9088 598.086 95.4018 588.231 101.095C578.376 106.788 570.376 120.567 570.376 131.867Z" fill="#23222D"/>
<path d="M571.885 127.339C574.257 115.91 582.236 104.243 591.293 99.0032C595.864 96.3723 600.242 95.6392 603.627 96.9546C605.045 97.5544 606.307 98.4705 607.316 99.6329C608.325 100.795 609.055 102.173 609.45 103.661L611.606 103.014C611.126 101.214 610.236 99.5486 609.005 98.1494C607.774 96.7502 606.236 95.6549 604.512 94.9491C600.501 93.3965 595.454 94.1728 590.322 97.1055C580.748 102.626 572.337 114.875 569.858 126.864L571.885 127.339Z" fill="#232321"/>
<path d="M609.472 103.661L620.729 110.131L620.06 105.43L618.788 103.273L605.332 95.3591C605.332 95.3591 597.353 94.0868 591.552 97.5155C585.21 101.645 579.905 107.179 576.047 113.689C573.609 117.963 571.504 122.418 569.75 127.016L581.007 133.485C581.007 133.485 587.347 117.764 593.04 112.179C598.733 106.594 607.359 99.4347 609.472 103.661Z" fill="#232321"/>
<path d="M588.554 150.821L574.753 142.778L602.097 100.662L614.388 107.714L588.554 150.821Z" fill="#23222D"/>
<path d="M583.141 133.872C585.513 122.422 593.492 110.777 602.549 105.537C607.121 102.906 611.499 102.173 614.884 103.38C616.304 103.977 617.567 104.893 618.576 106.055C619.586 107.218 620.315 108.598 620.707 110.087L622.863 109.418C622.378 107.622 621.486 105.962 620.256 104.567C619.025 103.172 617.49 102.08 615.768 101.375C611.757 99.8222 606.711 100.599 601.579 103.531C592.004 109.073 583.594 121.3 581.114 133.312L583.141 133.872Z" fill="#2F2F2D"/>
<path d="M583.098 139.242C583.098 150.542 591.077 155.092 600.932 149.399C610.786 143.706 618.787 129.991 618.787 118.626C618.787 107.262 610.786 102.755 601.018 108.426C591.249 114.098 583.098 127.834 583.098 139.242Z" fill="#292833"/>
<path d="M584.413 138.466C584.413 148.946 591.81 153.173 600.931 147.89C605.738 144.775 609.741 140.57 612.615 135.616C615.489 130.662 617.153 125.1 617.471 119.382C617.471 108.901 610.075 104.696 600.931 109.958C591.788 115.22 584.413 127.986 584.413 138.466Z" fill="#2D2C37"/>
<path d="M589.115 135.748C589.115 143.253 594.398 146.272 600.932 142.498C604.371 140.269 607.235 137.259 609.292 133.715C611.35 130.17 612.541 126.19 612.771 122.098C612.771 114.615 607.466 111.596 600.932 115.37C597.496 117.596 594.635 120.602 592.581 124.143C590.528 127.684 589.34 131.661 589.115 135.748Z" fill="#D8D5DC"/>
<path d="M589.848 135.317C589.848 135.555 589.848 135.792 589.848 136.007C590.172 142.477 595.002 145.043 600.911 141.636C604.132 139.548 606.814 136.729 608.74 133.409C610.666 130.089 611.781 126.362 611.995 122.53C611.995 115.823 607.467 112.955 601.752 115.78L600.911 116.211C599.357 117.128 597.942 118.261 596.706 119.575L596.296 120.028C595.8 120.567 595.326 121.15 594.873 121.753L594.42 122.379C593.787 123.269 593.211 124.198 592.695 125.161L592.35 125.786C591.983 126.541 591.617 127.317 591.315 128.115C591.267 128.269 591.209 128.42 591.142 128.568C590.319 130.724 589.881 133.009 589.848 135.317Z" fill="#929197"/>
<path d="M597.806 140.084C601.019 137.99 603.694 135.169 605.616 131.85C607.537 128.531 608.651 124.807 608.868 120.978C608.997 118.704 608.222 116.472 606.712 114.767C609.838 115.199 611.93 117.98 611.93 122.531C611.736 126.347 610.647 130.065 608.751 133.384C606.856 136.703 604.207 139.53 601.019 141.637C597.31 143.793 594.053 143.577 592.026 141.529C594.059 141.696 596.09 141.188 597.806 140.084Z" fill="#A4A3A8"/>
<path d="M589.848 135.317C589.848 135.554 589.848 135.791 589.848 136.007C589.849 138.002 590.551 139.934 591.832 141.463C593.07 142.013 594.43 142.229 595.777 142.089C597.124 141.949 598.411 141.458 599.509 140.665C602.65 138.611 605.263 135.846 607.136 132.594C609.01 129.342 610.091 125.694 610.291 121.947C610.291 118.259 608.89 115.758 606.669 114.766C604.942 114.602 603.206 114.963 601.687 115.801L600.846 116.232C599.317 117.148 597.923 118.273 596.706 119.575L596.296 120.028C595.8 120.567 595.326 121.149 594.873 121.753L594.42 122.378C593.787 123.268 593.211 124.198 592.695 125.16L592.35 125.785C591.983 126.54 591.617 127.317 591.315 128.114C591.267 128.269 591.209 128.42 591.142 128.567C590.319 130.724 589.881 133.009 589.848 135.317Z" fill="#B6B5B9"/>
<path d="M597.395 139.717C600.539 137.665 603.153 134.901 605.027 131.648C606.9 128.396 607.98 124.747 608.177 120.999C608.278 119.86 608.138 118.713 607.767 117.632C607.395 116.551 606.8 115.56 606.021 114.723H606.797C608.954 115.715 610.42 118.217 610.42 121.904C610.219 125.652 609.138 129.299 607.265 132.551C605.392 135.803 602.779 138.568 599.638 140.622C598.54 141.415 597.253 141.906 595.906 142.046C594.559 142.186 593.199 141.97 591.961 141.42C591.961 141.42 591.81 141.183 591.724 141.097C593.714 141.269 595.706 140.784 597.395 139.717Z" fill="#D8D5DC"/>
<path d="M589.848 135.318C589.848 135.555 589.848 135.792 589.848 136.008C591.336 138.164 594.161 138.66 597.461 136.784C599.967 135.146 602.054 132.943 603.552 130.351C605.05 127.759 605.918 124.851 606.086 121.861C606.086 118.174 604.318 115.974 601.774 115.78L600.932 116.212C599.371 117.127 597.948 118.26 596.706 119.576L596.296 120.028C595.8 120.568 595.326 121.15 594.873 121.754L594.42 122.379C593.787 123.269 593.211 124.198 592.695 125.161L592.35 125.786C591.983 126.541 591.617 127.317 591.315 128.115C591.267 128.269 591.209 128.421 591.142 128.568C590.319 130.725 589.881 133.009 589.848 135.318Z" fill="#A4A3A8"/>
<path d="M601.903 118.109C601.873 118.582 601.733 119.041 601.493 119.449C601.253 119.857 600.921 120.203 600.522 120.459C599.789 120.891 599.164 120.459 599.164 119.683C599.193 119.213 599.331 118.756 599.566 118.348C599.802 117.94 600.129 117.592 600.522 117.333C601.277 116.901 601.903 117.246 601.903 118.109Z" fill="#22222C"/>
<path d="M594.549 122.378C594.563 122.482 594.602 122.581 594.662 122.667C594.722 122.754 594.801 122.824 594.894 122.874C595.433 123.176 596.296 122.68 596.813 121.774C597.331 120.869 597.352 119.898 596.813 119.618L596.403 120.071C595.907 120.61 595.433 121.192 594.98 121.796L594.549 122.378Z" fill="#22222C"/>
<path d="M591.164 128.567C591.305 128.649 591.464 128.692 591.627 128.692C591.79 128.692 591.95 128.649 592.091 128.567C592.493 128.315 592.828 127.97 593.068 127.561C593.308 127.152 593.447 126.691 593.471 126.217C593.471 125.613 593.169 125.268 592.716 125.268L592.371 125.893C592.005 126.648 591.638 127.425 591.336 128.222C591.284 128.34 591.227 128.455 591.164 128.567Z" fill="#22222C"/>
<path d="M591.336 128.115C591.509 128.395 591.854 128.46 592.242 128.223C592.551 128.035 592.807 127.773 592.988 127.46C593.169 127.147 593.268 126.794 593.277 126.433C593.277 125.829 592.889 125.57 592.371 125.786C592.005 126.541 591.638 127.317 591.336 128.115Z" fill="#585760"/>
<path d="M594.872 121.947C594.872 122.616 595.325 122.874 595.907 122.529C596.213 122.344 596.468 122.085 596.648 121.776C596.829 121.467 596.93 121.119 596.943 120.761C596.943 120.265 596.684 120.006 596.317 120.028C595.821 120.567 595.347 121.149 594.894 121.753C594.876 121.816 594.869 121.882 594.872 121.947Z" fill="#585760"/>
<path d="M600.695 117.85C601.256 117.505 601.73 117.85 601.73 118.432C601.71 118.791 601.606 119.14 601.426 119.451C601.247 119.762 600.996 120.026 600.695 120.222C600.113 120.545 599.66 120.222 599.66 119.64C599.669 119.278 599.768 118.925 599.949 118.612C600.13 118.3 600.386 118.037 600.695 117.85Z" fill="#585760"/>
<path d="M590.754 132.148C591.293 131.221 592.155 130.725 592.673 131.027C593.19 131.329 593.212 132.321 592.673 133.183C592.134 134.046 591.293 134.585 590.754 134.283C590.215 133.981 590.236 132.968 590.754 132.148Z" fill="#22222C"/>
<path d="M593.471 135.791C593.497 135.32 593.633 134.862 593.869 134.453C594.105 134.045 594.434 133.698 594.83 133.441C595.584 132.988 596.188 133.441 596.188 134.217C596.163 134.688 596.026 135.147 595.79 135.555C595.554 135.963 595.225 136.31 594.83 136.568C594.075 136.999 593.471 136.654 593.471 135.791Z" fill="#22222C"/>
<path d="M598.647 134.303C598.107 134.002 598.107 133.01 598.647 132.147C599.186 131.284 600.048 130.724 600.566 131.026C601.083 131.328 601.105 132.32 600.566 133.182C600.027 134.045 599.186 134.648 598.647 134.303Z" fill="#22222C"/>
<path d="M603.174 128.568C602.42 128.999 601.816 128.568 601.816 127.792C601.841 127.321 601.978 126.862 602.214 126.454C602.45 126.045 602.779 125.698 603.174 125.441C603.929 124.988 604.533 125.441 604.533 126.218C604.508 126.689 604.371 127.147 604.135 127.555C603.899 127.964 603.57 128.311 603.174 128.568Z" fill="#22222C"/>
<path d="M604.598 121.839C604.08 122.766 603.218 123.262 602.679 122.96C602.139 122.659 602.139 121.667 602.679 120.804C603.218 119.941 604.08 119.381 604.598 119.683C605.115 119.985 605.137 120.912 604.598 121.839Z" fill="#22222C"/>
<path d="M594.873 129.278C594.873 131.241 596.253 132.039 597.978 131.047C598.868 130.45 599.606 129.654 600.134 128.722C600.662 127.79 600.965 126.747 601.019 125.677C601.019 123.693 599.617 122.917 597.913 123.909C597.017 124.499 596.275 125.294 595.746 126.227C595.217 127.161 594.918 128.207 594.873 129.278Z" fill="#22222C"/>
<path d="M596.382 129.625C596.382 131.286 597.547 131.976 598.991 131.135C599.753 130.638 600.388 129.97 600.845 129.183C601.302 128.397 601.568 127.514 601.622 126.606C601.622 124.946 600.436 124.277 598.991 125.118C598.231 125.609 597.597 126.274 597.144 127.057C596.69 127.841 596.429 128.721 596.382 129.625Z" fill="#585760"/>
<path d="M603.8 120.243C604.36 119.898 604.835 120.243 604.835 120.826C604.815 121.184 604.711 121.533 604.531 121.844C604.351 122.155 604.101 122.42 603.8 122.616C603.218 122.939 602.765 122.616 602.765 122.033C602.773 121.672 602.873 121.319 603.054 121.006C603.235 120.694 603.491 120.431 603.8 120.243Z" fill="#585760"/>
<path d="M603.412 125.937C603.994 125.614 604.447 125.937 604.447 126.541C604.426 126.899 604.321 127.248 604.141 127.558C603.962 127.869 603.712 128.133 603.412 128.331C602.851 128.654 602.377 128.331 602.377 127.727C602.402 127.369 602.508 127.022 602.687 126.712C602.867 126.402 603.115 126.137 603.412 125.937Z" fill="#585760"/>
<path d="M599.767 131.63C600.328 131.285 600.802 131.63 600.802 132.212C600.779 132.57 600.674 132.918 600.494 133.228C600.315 133.539 600.066 133.804 599.767 134.002C599.185 134.326 598.732 134.002 598.732 133.42C598.741 133.059 598.84 132.706 599.021 132.393C599.202 132.08 599.459 131.818 599.767 131.63Z" fill="#585760"/>
<path d="M594.98 133.938C595.563 133.614 596.015 133.938 596.015 134.541C595.994 134.9 595.889 135.248 595.71 135.559C595.53 135.869 595.28 136.134 594.98 136.331C594.42 136.655 593.945 136.331 593.945 135.727C593.97 135.37 594.076 135.023 594.255 134.713C594.435 134.402 594.683 134.137 594.98 133.938Z" fill="#585760"/>
<path d="M591.875 131.543C592.435 131.219 592.91 131.543 592.91 132.147C592.885 132.504 592.779 132.851 592.599 133.161C592.42 133.472 592.172 133.737 591.875 133.936C591.292 134.26 590.839 133.936 590.839 133.333C590.861 132.974 590.966 132.626 591.145 132.315C591.325 132.005 591.575 131.74 591.875 131.543Z" fill="#585760"/>
<path d="M528.971 155.868C528.971 167.168 536.971 171.718 546.826 166.025C556.681 160.332 564.682 146.617 564.682 135.252C564.682 123.888 556.681 119.381 546.826 125.074C536.971 130.767 528.971 144.46 528.971 155.868Z" fill="#23222D"/>
<path d="M547.15 174.716L533.37 166.672L560.692 124.557L572.984 131.608L547.15 174.716Z" fill="#23222D"/>
<path d="M541.695 163.134C541.695 174.434 549.696 179.006 559.551 173.313C569.406 167.62 577.384 153.905 577.384 142.519C577.384 131.133 569.406 126.647 559.551 132.34C549.696 138.033 541.695 151.813 541.695 163.134Z" fill="#292833"/>
<path d="M543.01 162.337C543.01 172.796 550.407 177.023 559.55 171.761C564.35 168.637 568.347 164.426 571.217 159.469C574.087 154.513 575.749 148.95 576.068 143.231C576.068 132.773 568.672 128.546 559.55 133.808C554.744 136.928 550.742 141.138 547.868 146.095C544.995 151.052 543.33 156.617 543.01 162.337Z" fill="#2D2C37"/>
<path d="M547.711 159.642C547.711 167.147 553.016 170.166 559.55 166.392C562.986 164.162 565.847 161.151 567.9 157.607C569.954 154.062 571.142 150.082 571.367 145.992C571.367 138.509 566.084 135.49 559.55 139.264C556.114 141.491 553.251 144.497 551.194 148.038C549.137 151.578 547.944 155.554 547.711 159.642Z" fill="#D8D5DC"/>
<path d="M548.466 159.211C548.466 159.47 548.466 159.686 548.466 159.901C548.768 166.371 553.598 168.958 559.528 165.529C562.743 163.437 565.419 160.617 567.341 157.297C569.263 153.978 570.376 150.253 570.591 146.423C570.591 139.738 566.084 136.849 560.348 139.674L559.528 140.105C557.936 141.022 556.484 142.162 555.215 143.491L554.806 143.922C554.297 144.468 553.821 145.044 553.383 145.647L552.908 146.272C552.279 147.161 551.71 148.09 551.205 149.054L550.881 149.68C550.496 150.438 550.151 151.215 549.846 152.009C549.779 152.156 549.721 152.307 549.673 152.461C548.88 154.624 548.471 156.908 548.466 159.211Z" fill="#929197"/>
<path d="M556.402 163.976C559.622 161.888 562.305 159.069 564.231 155.749C566.157 152.429 567.272 148.702 567.486 144.869C567.615 142.596 566.84 140.363 565.329 138.659C568.456 139.112 570.548 141.872 570.548 146.422C570.336 150.252 569.224 153.979 567.302 157.299C565.38 160.618 562.702 163.438 559.485 165.528C555.776 167.685 552.499 167.469 550.493 165.528C552.582 165.7 554.667 165.152 556.402 163.976Z" fill="#A4A3A8"/>
<path d="M548.466 159.21C548.466 159.469 548.466 159.685 548.466 159.9C548.445 161.899 549.15 163.838 550.45 165.356C551.684 165.905 553.041 166.119 554.384 165.979C555.727 165.839 557.01 165.349 558.105 164.558C561.247 162.506 563.861 159.741 565.734 156.489C567.608 153.237 568.688 149.588 568.887 145.84C568.887 142.153 567.464 139.652 565.264 138.66C563.547 138.484 561.816 138.838 560.305 139.673L559.485 140.104C557.893 141.021 556.441 142.161 555.172 143.49L554.763 143.921C554.254 144.467 553.778 145.043 553.339 145.646L552.865 146.272C552.236 147.16 551.667 148.09 551.161 149.054L550.838 149.679C550.453 150.437 550.108 151.214 549.803 152.008C549.736 152.155 549.678 152.306 549.63 152.461C548.851 154.625 548.457 156.91 548.466 159.21Z" fill="#B6B5B9"/>
<path d="M555.992 163.61C559.143 161.566 561.763 158.804 563.638 155.549C565.512 152.295 566.587 148.643 566.774 144.892C566.868 143.754 566.725 142.608 566.354 141.528C565.983 140.448 565.392 139.457 564.618 138.617C564.862 138.595 565.107 138.595 565.351 138.617C567.508 139.609 568.996 142.11 568.996 145.798C568.796 149.546 567.716 153.194 565.843 156.446C563.969 159.698 561.355 162.463 558.213 164.516C557.119 165.307 555.836 165.797 554.492 165.937C553.149 166.077 551.792 165.862 550.558 165.313L550.299 164.99C552.297 165.17 554.299 164.685 555.992 163.61Z" fill="#D8D5DC"/>
<path d="M548.466 159.211C548.466 159.47 548.466 159.685 548.466 159.901C549.954 162.057 552.779 162.575 556.057 160.677C558.565 159.042 560.654 156.839 562.152 154.247C563.651 151.654 564.518 148.745 564.682 145.755C564.682 142.067 562.936 139.868 560.369 139.674L559.55 140.105C557.958 141.021 556.505 142.162 555.237 143.49L554.827 143.922C554.318 144.467 553.843 145.043 553.404 145.647L552.93 146.272C552.301 147.161 551.732 148.09 551.226 149.054L550.903 149.679C550.518 150.437 550.172 151.215 549.868 152.008C549.801 152.156 549.743 152.307 549.695 152.461C548.894 154.622 548.478 156.907 548.466 159.211Z" fill="#A4A3A8"/>
<path d="M560.498 142.002C560.472 142.474 560.336 142.932 560.1 143.34C559.864 143.749 559.535 144.096 559.139 144.353C558.385 144.806 557.781 144.353 557.781 143.577C557.806 143.106 557.943 142.647 558.179 142.239C558.415 141.83 558.744 141.483 559.139 141.226C559.894 140.773 560.498 141.14 560.498 142.002Z" fill="#22222C"/>
<path d="M553.037 146.272C553.058 146.379 553.102 146.481 553.165 146.57C553.228 146.659 553.31 146.734 553.404 146.79C553.921 147.091 554.784 146.595 555.323 145.668C555.862 144.741 555.862 143.792 555.323 143.512L554.913 143.943C554.404 144.489 553.929 145.065 553.49 145.668L553.037 146.272Z" fill="#22222C"/>
<path d="M549.781 152.46C549.921 152.546 550.081 152.591 550.245 152.591C550.409 152.591 550.569 152.546 550.709 152.46C551.104 152.203 551.433 151.856 551.669 151.447C551.905 151.039 552.042 150.581 552.067 150.109C552.067 149.506 551.765 149.161 551.334 149.161L551.011 149.786C550.626 150.544 550.28 151.321 549.975 152.115C549.905 152.227 549.84 152.342 549.781 152.46Z" fill="#22222C"/>
<path d="M549.954 152.008C550.105 152.288 550.471 152.353 550.859 152.115C551.158 151.921 551.406 151.661 551.586 151.354C551.766 151.047 551.871 150.702 551.894 150.347C551.894 149.722 551.506 149.463 550.989 149.679C550.604 150.437 550.258 151.214 549.954 152.008Z" fill="#585760"/>
<path d="M553.577 145.84C553.577 146.509 554.052 146.768 554.612 146.444C554.915 146.249 555.166 145.985 555.346 145.674C555.526 145.363 555.629 145.013 555.647 144.654C555.647 144.18 555.41 143.9 555.044 143.921C554.535 144.467 554.059 145.043 553.62 145.646C553.587 145.705 553.572 145.773 553.577 145.84Z" fill="#585760"/>
<path d="M559.291 141.743C559.873 141.42 560.326 141.743 560.326 142.326C560.317 142.687 560.218 143.04 560.037 143.353C559.856 143.665 559.6 143.928 559.291 144.116C558.73 144.439 558.256 144.115 558.256 143.533C558.276 143.175 558.38 142.826 558.56 142.515C558.739 142.204 558.99 141.939 559.291 141.743Z" fill="#585760"/>
<path d="M549.264 155.868C549.803 154.94 550.666 154.444 551.205 154.746C551.744 155.048 551.744 156.04 551.205 156.903C550.666 157.765 549.803 158.326 549.264 158.024C548.725 157.722 548.833 156.881 549.264 155.868Z" fill="#22222C"/>
<path d="M552.067 159.686C552.093 159.215 552.229 158.756 552.465 158.348C552.701 157.939 553.03 157.592 553.426 157.335C554.181 156.904 554.806 157.335 554.806 158.112C554.776 158.584 554.636 159.043 554.396 159.451C554.157 159.86 553.824 160.206 553.426 160.462C552.671 160.893 552.067 160.548 552.067 159.686Z" fill="#22222C"/>
<path d="M557.242 158.24C556.725 157.939 556.725 156.947 557.242 156.084C557.76 155.221 558.644 154.682 559.183 154.984C559.722 155.286 559.722 156.278 559.183 157.141C558.644 158.003 557.889 158.542 557.242 158.24Z" fill="#22222C"/>
<path d="M561.857 152.462C561.124 152.893 560.499 152.462 560.499 151.685C560.528 151.215 560.665 150.758 560.901 150.35C561.137 149.942 561.464 149.594 561.857 149.335C562.612 148.903 563.237 149.335 563.237 150.111C563.208 150.584 563.067 151.043 562.828 151.451C562.588 151.859 562.255 152.205 561.857 152.462Z" fill="#22222C"/>
<path d="M563.216 145.733C562.677 146.66 561.814 147.156 561.275 146.854C560.736 146.553 560.758 145.561 561.275 144.698C561.793 143.835 562.677 143.296 563.216 143.598C563.755 143.9 563.755 144.827 563.216 145.733Z" fill="#22222C"/>
<path d="M553.577 153.172C553.577 155.135 554.978 155.933 556.682 154.941C557.585 154.357 558.337 153.569 558.876 152.639C559.416 151.71 559.728 150.666 559.787 149.593C559.787 147.63 558.407 146.832 556.682 147.824C555.783 148.412 555.034 149.201 554.495 150.13C553.955 151.058 553.641 152.1 553.577 153.172Z" fill="#22222C"/>
<path d="M554.978 153.539C554.978 155.199 556.164 155.868 557.609 155.027C558.368 154.529 559 153.86 559.453 153.073C559.906 152.287 560.168 151.405 560.219 150.498C560.219 148.838 559.054 148.169 557.609 149.01C556.848 149.507 556.213 150.176 555.756 150.962C555.299 151.749 555.033 152.631 554.978 153.539Z" fill="#585760"/>
<path d="M562.397 144.137C562.979 143.814 563.432 144.137 563.432 144.72C563.423 145.081 563.324 145.434 563.143 145.747C562.962 146.06 562.705 146.322 562.397 146.51C561.836 146.855 561.362 146.51 561.362 145.927C561.381 145.569 561.485 145.22 561.665 144.909C561.845 144.598 562.096 144.333 562.397 144.137Z" fill="#585760"/>
<path d="M562.03 149.852C562.591 149.507 563.066 149.852 563.066 150.434C563.042 150.792 562.937 151.14 562.758 151.45C562.578 151.761 562.329 152.025 562.03 152.224C561.448 152.547 560.995 152.224 560.995 151.62C561.008 151.263 561.109 150.914 561.289 150.605C561.47 150.297 561.725 150.038 562.03 149.852Z" fill="#585760"/>
<path d="M558.363 155.522C558.946 155.199 559.399 155.522 559.399 156.104C559.39 156.465 559.29 156.819 559.11 157.131C558.929 157.444 558.672 157.706 558.363 157.894C557.803 158.218 557.328 157.894 557.328 157.312C557.348 156.953 557.452 156.604 557.632 156.293C557.812 155.982 558.062 155.718 558.363 155.522Z" fill="#585760"/>
<path d="M553.577 157.853C554.138 157.508 554.612 157.853 554.612 158.435C554.581 158.785 554.472 159.124 554.293 159.426C554.114 159.728 553.869 159.987 553.577 160.182C552.995 160.505 552.542 160.182 552.542 159.578C552.561 159.228 552.666 158.888 552.846 158.587C553.026 158.287 553.277 158.035 553.577 157.853Z" fill="#585760"/>
<path d="M550.471 155.459C551.053 155.114 551.506 155.459 551.506 156.041C551.485 156.399 551.38 156.748 551.2 157.058C551.021 157.369 550.771 157.634 550.471 157.831C549.911 158.154 549.436 157.831 549.436 157.227C549.459 156.872 549.565 156.527 549.744 156.22C549.924 155.913 550.173 155.653 550.471 155.459Z" fill="#585760"/>
<path d="M479.675 223.042L467.038 215.731V217.802L479.675 225.09V223.042Z" fill="#B4AEBC"/>
<path d="M467.038 215.732L479.675 223.042L507.795 206.825L495.137 199.515L467.038 215.732Z" fill="#F3EDF2"/>
<path d="M521.295 137.948L502.038 192.765L472.883 209.585L466.414 197.747L464.451 167.75L488 103.23L471.718 169.842L505.92 150.111L521.295 137.948Z" fill="#0F3015"/>
<path d="M494.339 188.991L496.646 190.328L493.886 205.1L491.579 203.763L494.339 188.991Z" fill="#D8D5DC"/>
<path d="M483.341 195.353L485.648 196.69L482.888 211.461L480.581 210.124L483.341 195.353Z" fill="#D8D5DC"/>
<path d="M408.081 175.643H406.529V170.619C406.529 170.361 406.462 170.107 406.333 169.884C406.204 169.661 406.019 169.475 405.796 169.346C405.568 169.22 405.312 169.153 405.052 169.153C404.791 169.153 404.535 169.22 404.308 169.346C403.849 169.626 403.324 169.779 402.787 169.789C402.25 169.798 401.72 169.664 401.252 169.401C400.783 169.137 400.394 168.753 400.124 168.288C399.854 167.824 399.712 167.296 399.714 166.759V129.237C399.716 127.253 400.238 125.304 401.23 123.586C402.222 121.868 403.647 120.44 405.364 119.446L422.034 109.785L422.81 111.122L406.076 120.783C404.594 121.641 403.363 122.874 402.508 124.358C401.653 125.841 401.202 127.524 401.202 129.237V166.759C401.198 167.02 401.264 167.278 401.393 167.505C401.522 167.733 401.709 167.922 401.936 168.052C402.159 168.179 402.412 168.246 402.669 168.246C402.926 168.246 403.178 168.179 403.402 168.052C403.859 167.768 404.384 167.61 404.923 167.597C405.462 167.584 405.994 167.715 406.465 167.977C406.936 168.239 407.328 168.622 407.601 169.086C407.874 169.551 408.017 170.08 408.017 170.619L408.081 175.643Z" fill="#6F9C72"/>
<path d="M420.697 154.725L416.837 156.946L412.718 172.516L416.578 170.295L420.697 154.725Z" fill="#D8D5DC"/>
<path d="M431.695 148.364L427.835 150.607L423.716 166.155L427.576 163.934L431.695 148.364Z" fill="#D8D5DC"/>
<path d="M469.863 94.7767L450.585 149.572L421.451 166.414L414.982 154.575V108.19L426.842 78.5603L420.287 126.67L454.488 106.917L469.863 94.7767Z" fill="#0F3015"/>
<path d="M542.772 67.1951L482.651 101.892V124.513L542.772 89.7946V67.1951Z" fill="#1C1922"/>
<path d="M458.304 118.368L656.201 4.09839V-15.2449L458.304 99.0249V118.368Z" fill="#222428"/>
<path d="M487.115 -4.8511L473.378 98.7012L619.477 14.3628V-81.2754L487.115 -4.8511Z" fill="#F3EDF2"/>
<path d="M482.155 76.704L611.175 2.2205V-70.1497L492.377 -1.55326L482.155 76.704Z" fill="#D8D5DC"/>
<path d="M485.886 63.0331L493.65 1.57457L603.973 -62.1267V-5.15353L485.886 63.0331Z" fill="#F3EDF2"/>
<path d="M538.481 158.025C541.932 148.472 546.525 136.892 555.604 131.652C560.175 129.021 565.329 124.363 566.386 127.058C566.558 127.447 566.688 127.856 566.839 128.266L578.095 134.735C577.525 132.328 576.805 129.958 575.939 127.641C575.292 126.606 565.868 122.12 564.984 121.365C564.038 120.569 562.967 119.935 561.814 119.489C557.803 117.937 552.757 118.713 547.625 121.646C538.05 127.188 529.64 139.415 527.16 151.426L538.481 158.025Z" fill="#232321"/>
<path d="M515.084 172.71L528.626 180.84C528.626 180.84 536.217 174.371 530.783 149.054L516.097 140.04C516.097 140.277 520.173 163.761 513.941 171.826L515.084 172.71Z" fill="#2F2F2D"/>
<path d="M529.856 181.745C536.519 173.119 532.53 149.808 532.357 148.816L530.934 149.075C530.934 149.312 534.988 172.796 528.777 180.861L529.856 181.745Z" fill="#232321"/>
<path d="M540.639 158.391C542.989 146.962 550.99 135.317 560.047 130.055C564.597 127.424 568.974 126.713 572.381 127.899C573.802 128.501 575.065 129.42 576.074 130.586C577.083 131.753 577.812 133.135 578.204 134.627L580.36 133.958C579.876 132.16 578.984 130.497 577.753 129.098C576.523 127.7 574.988 126.603 573.266 125.893C569.255 124.341 564.209 125.117 559.076 128.05C549.502 133.57 541.091 145.819 538.612 157.809L540.639 158.391Z" fill="#2F2F2D"/>
<path d="M681.863 49.3614V60.1436C681.863 62.4941 661.269 71.2709 663.318 72.4353L672.806 91.6061C673.475 91.9943 701.94 74.9799 702.5 74.5487C702.729 74.3791 702.915 74.158 703.042 73.9032C703.17 73.6484 703.235 73.3671 703.233 73.0823V62.3001C703.219 61.159 702.909 60.0411 702.335 59.0549C701.76 58.0688 700.941 57.2478 699.956 56.6718L684.623 47.8303C684.348 47.6755 684.037 47.5938 683.72 47.593C683.404 47.5922 683.093 47.6724 682.816 47.8258C682.539 47.9792 682.307 48.2009 682.14 48.4697C681.973 48.7385 681.878 49.0454 681.863 49.3614Z" fill="#17191D"/>
<path d="M652.924 66.0739V76.8561C652.914 78.0134 653.216 79.152 653.796 80.1534C654.376 81.1547 655.215 81.982 656.223 82.5491L671.556 91.412C671.835 91.5706 672.15 91.6531 672.471 91.6514C672.792 91.6497 673.107 91.5638 673.384 91.4022C673.661 91.2407 673.891 91.0091 674.051 90.7308C674.211 90.4525 674.295 90.1372 674.294 89.8163V79.0341C674.293 77.8815 673.989 76.7495 673.414 75.7507C672.839 74.7519 672.013 73.9211 671.017 73.3411L655.684 64.4997C655.406 64.3366 655.09 64.2498 654.768 64.2478C654.446 64.2459 654.129 64.3289 653.849 64.4886C653.569 64.6482 653.336 64.8788 653.174 65.1571C653.011 65.4354 652.925 65.7516 652.924 66.0739Z" fill="#0C0C0C"/>
<path d="M674.294 89.8603L703.234 73.1478V62.3225L674.294 79.0134V89.8603Z" fill="#1E2024"/>
<path d="M748.692 13.392L746.471 12.1197L659.825 -18.9331L652.428 -13.0676L723.483 27.9479L748.692 13.392Z" fill="#2A2A28"/>
<path d="M725.013 24.4978L656.201 -15.2454L656.374 -41.7696L657.776 -82.8499L726.588 -43.1282L725.186 -2.048L725.013 24.4978Z" fill="#B5AEBC"/>
<path d="M719.17 8.73448L654.369 -28.6582L642.12 -9.42275L706.964 28.0131L719.17 8.73448Z" fill="#CC454C"/>
<path d="M684.537 -7.87053L677.658 -27.6235L652.428 -13.0676L645.657 -7.15891L639.36 7.95774V20.4435L684.537 -5.6494V-7.87053Z" fill="#383838"/>
<path d="M681.066 3.19243C681.066 14.5137 673.087 28.2934 663.232 33.9864C653.377 39.6794 645.377 35.1078 645.377 23.808C645.377 12.5083 653.377 -1.29297 663.232 -6.98597C673.087 -12.679 681.066 -8.02106 681.066 3.19243Z" fill="#0C0C0C"/>
<path d="M675.049 6.68545C674.82 10.7721 673.631 14.7473 671.577 18.288C669.524 21.8288 666.665 24.8355 663.231 27.0638C656.762 30.8376 651.414 27.8186 651.414 20.3357C651.639 16.2453 652.827 12.2659 654.88 8.7211C656.934 5.17631 659.795 2.16626 663.231 -0.0642099C669.765 -3.83798 675.049 -0.818962 675.049 6.68545Z" fill="#B7B4BA"/>
<path d="M674.337 7.07347C674.12 10.9049 673.003 14.6312 671.077 17.9506C669.152 21.27 666.471 24.0891 663.253 26.1795C657.129 29.6945 652.169 26.8696 652.169 19.8612C652.379 16.0282 653.493 12.2992 655.42 8.97878C657.346 5.65832 660.03 2.84042 663.253 0.755094C669.356 -2.73834 674.337 0.086598 674.337 7.07347Z" fill="#929197"/>
<path d="M671.297 8.84194C671.14 11.6341 670.329 14.3501 668.928 16.7703C667.526 19.1904 665.575 21.2466 663.232 22.7726C658.768 25.3387 655.167 23.2685 655.167 18.1578C655.319 15.3678 656.13 12.6535 657.531 10.2362C658.933 7.81903 660.886 5.7674 663.232 4.24872C667.695 1.66099 671.297 3.73118 671.297 8.84194Z" fill="#B5AAB1"/>
<path d="M666.509 11.6025C666.448 12.7392 666.12 13.8455 665.55 14.831C664.98 15.8166 664.186 16.6537 663.231 17.2739C661.42 18.3306 659.932 17.4895 659.932 15.3978C660.002 14.2608 660.337 13.1558 660.91 12.1711C661.482 11.1864 662.277 10.3492 663.231 9.72635C665.043 8.6697 666.509 9.51071 666.509 11.6025Z" fill="#0C0C0C"/>
<path d="M659.393 9.23064C659.393 9.85601 659.824 10.0932 660.385 9.79131C660.67 9.60423 660.906 9.35231 661.075 9.05618C661.243 8.76006 661.34 8.42817 661.355 8.08773C661.355 7.46236 660.924 7.22515 660.385 7.52705C660.096 7.71171 659.855 7.96258 659.683 8.25886C659.51 8.55513 659.411 8.88827 659.393 9.23064Z" fill="#0C0C0C"/>
<path d="M664.461 5.15437C664.073 5.82286 664.073 6.53448 664.461 6.75013C664.849 6.96577 665.475 6.59918 665.863 5.95225C666.251 5.30531 666.229 4.57213 665.863 4.35648C665.496 4.14084 664.849 4.48587 664.461 5.15437Z" fill="#0C0C0C"/>
<path d="M668.817 5.88809C668.531 6.07064 668.292 6.31812 668.12 6.61039C667.948 6.90266 667.847 7.23147 667.825 7.57011C667.825 8.19548 668.278 8.45426 668.817 8.13079C669.099 7.94583 669.334 7.69731 669.503 7.40518C669.671 7.11306 669.769 6.78548 669.788 6.44876C669.788 5.82339 669.357 5.56462 668.817 5.88809Z" fill="#0C0C0C"/>
<path d="M669.895 11.0848C669.507 10.8476 668.881 11.2142 668.493 11.8827C668.105 12.5512 668.105 13.2628 668.493 13.4785C668.881 13.6941 669.507 13.3275 669.895 12.6806C670.283 12.0336 670.261 11.3867 669.895 11.0848Z" fill="#0C0C0C"/>
<path d="M667.071 17.6837C667.071 17.0799 666.618 16.8212 666.079 17.1231C665.794 17.3102 665.557 17.5621 665.389 17.8582C665.22 18.1543 665.124 18.4862 665.108 18.8267C665.108 19.452 665.539 19.6892 666.079 19.3873C666.367 19.2027 666.608 18.9518 666.781 18.6555C666.953 18.3593 667.052 18.0261 667.071 17.6837Z" fill="#0C0C0C"/>
<path d="M662.003 21.845C662.37 21.1981 662.37 20.4864 662.003 20.2708C661.636 20.0551 660.989 20.4002 660.601 21.0687C660.213 21.7372 660.213 22.4272 660.601 22.6644C660.989 22.9017 661.615 22.5135 662.003 21.845Z" fill="#0C0C0C"/>
<path d="M657.646 21.1338C657.935 20.9492 658.175 20.6983 658.348 20.402C658.52 20.1058 658.62 19.7726 658.638 19.4303C658.638 18.8049 658.185 18.5677 657.646 18.8696C657.361 19.0567 657.125 19.3086 656.956 19.6047C656.787 19.9008 656.691 20.2327 656.676 20.5732C656.676 21.177 657.085 21.4357 657.646 21.1338Z" fill="#0C0C0C"/>
<path d="M656.568 15.9362C656.956 16.1518 657.582 15.7852 657.97 15.1167C658.358 14.4482 658.336 13.7582 657.97 13.5425C657.603 13.3269 656.956 13.6719 656.568 14.3404C656.18 15.0089 656.18 15.699 656.568 15.9362Z" fill="#0C0C0C"/>
<path d="M665.454 1.22984C665.324 1.76895 665.712 2.13554 666.359 2.02772C666.679 1.98169 666.982 1.8517 667.236 1.65096C667.489 1.45022 667.686 1.18588 667.804 0.884806C667.955 0.345695 667.545 0.000658877 666.898 0.0869165C666.58 0.137074 666.279 0.268614 666.026 0.468825C665.773 0.669036 665.576 0.931154 665.454 1.22984Z" fill="#0C0C0C"/>
<path d="M671.577 2.76076C671.381 3.00772 671.261 3.30588 671.23 3.61949C671.2 3.93311 671.26 4.2489 671.404 4.52904C671.445 4.64682 671.516 4.75186 671.61 4.83367C671.704 4.91547 671.818 4.97117 671.94 4.99518C672.062 5.0192 672.189 5.0107 672.307 4.97052C672.425 4.93034 672.53 4.8599 672.612 4.76625C672.803 4.51698 672.92 4.21925 672.951 3.90674C672.981 3.59424 672.924 3.27944 672.785 2.99797C672.504 2.41573 671.944 2.3079 671.577 2.76076Z" fill="#0C0C0C"/>
<path d="M672.806 10.5453C672.396 10.5453 671.879 11.3648 671.642 12.2489C671.405 13.1331 671.534 13.78 671.922 13.7369C672.31 13.6937 672.828 12.9174 673.065 12.0333C673.302 11.1491 673.194 10.4806 672.806 10.5453Z" fill="#0C0C0C"/>
<path d="M668.407 20.0124C668.234 19.6674 667.587 20.0124 666.962 20.6594C666.336 21.3063 665.97 22.1904 666.142 22.5139C666.315 22.8374 666.962 22.5139 667.587 21.8885C668.212 21.2632 668.601 20.4221 668.407 20.0124Z" fill="#0C0C0C"/>
<path d="M660.988 25.7703C661.139 25.2312 660.73 24.8862 660.104 24.9724C659.786 25.0226 659.485 25.1541 659.232 25.3543C658.979 25.5545 658.782 25.8166 658.659 26.1153C658.509 26.6544 658.918 27.021 659.565 26.9132C659.884 26.8701 660.185 26.741 660.436 26.5396C660.686 26.3382 660.878 26.0722 660.988 25.7703Z" fill="#0C0C0C"/>
<path d="M654.93 24.3262C655.121 24.0769 655.238 23.7792 655.269 23.4667C655.299 23.1542 655.242 22.8394 655.102 22.5579C655.064 22.4385 654.995 22.3313 654.902 22.2471C654.81 22.163 654.696 22.1048 654.574 22.0785C654.451 22.0523 654.324 22.0589 654.205 22.0976C654.085 22.1363 653.979 22.2059 653.895 22.2991C653.704 22.5484 653.587 22.8461 653.556 23.1587C653.526 23.4712 653.583 23.786 653.722 24.0674C653.76 24.1868 653.829 24.294 653.922 24.3782C654.015 24.4624 654.129 24.5206 654.251 24.5468C654.374 24.5731 654.501 24.5665 654.62 24.5278C654.739 24.489 654.846 24.4195 654.93 24.3262Z" fill="#0C0C0C"/>
<path d="M653.657 16.4761C654.045 16.4761 654.563 15.6567 654.822 14.7725C655.081 13.8884 654.822 13.2199 654.541 13.2846C654.261 13.3493 653.636 14.104 653.377 14.9882C653.118 15.8723 653.269 16.5193 653.657 16.4761Z" fill="#0C0C0C"/>
<path d="M658.035 6.92332C658.208 7.26835 658.876 6.92332 659.501 6.27638C660.127 5.62945 660.493 4.76687 660.321 4.42184C660.148 4.07681 659.48 4.42184 658.855 5.06877C658.229 5.71571 657.863 6.57828 658.035 6.92332Z" fill="#0C0C0C"/>
<path d="M549.975 78.9048C549.975 90.2045 541.975 103.984 532.12 109.677C522.265 115.37 514.286 110.82 514.286 99.4988C514.286 88.1775 522.265 74.4194 532.12 68.7264C541.975 63.0334 549.975 67.5835 549.975 78.9048Z" fill="#0C0C0C"/>
<path d="M543.937 82.3764C543.712 86.4639 542.524 90.4403 540.471 93.9816C538.417 97.523 535.556 100.529 532.12 102.755C525.651 106.529 520.303 103.51 520.303 96.0267C520.528 91.9363 521.716 87.9569 523.769 84.4121C525.823 80.8673 528.684 77.8572 532.12 75.6268C538.654 71.7667 543.937 74.872 543.937 82.3764Z" fill="#B7B4BA"/>
<path d="M543.204 82.8081C542.994 86.647 541.88 90.3819 539.954 93.7093C538.028 97.0367 535.344 99.8626 532.12 101.957C525.996 105.494 521.036 102.647 521.036 95.639C521.25 91.8068 522.365 88.0791 524.291 84.7592C526.217 81.4393 528.9 78.6208 532.12 76.5329C538.244 72.9532 543.204 75.7781 543.204 82.8081Z" fill="#929197"/>
<path d="M541.997 83.4986C541.804 86.9114 540.809 90.2307 539.093 93.187C537.377 96.1433 534.988 98.6532 532.12 100.513C526.664 103.661 522.265 101.138 522.265 94.8846C522.455 91.4737 523.447 88.1556 525.159 85.1994C526.871 82.2433 529.256 79.7324 532.12 77.8703C537.576 74.7219 541.997 77.2449 541.997 83.4986Z" fill="#B7B4BA"/>
<path d="M541.112 83.9931C540.943 87.1068 540.041 90.1366 538.478 92.8349C536.915 95.5333 534.737 97.8238 532.12 99.5195C527.16 102.388 523.127 100.102 523.127 94.3872C523.303 91.2751 524.208 88.248 525.77 85.5507C527.332 82.8534 529.508 80.5616 532.12 78.8608C537.101 76.079 541.112 78.2354 541.112 83.9931Z" fill="#B2AAAB"/>
<path d="M536.325 86.8621C536.23 88.3306 535.79 89.7559 535.041 91.0223C534.291 92.2887 533.254 93.3606 532.012 94.1509C529.683 95.4879 527.807 94.4097 527.807 91.7357C527.885 90.2786 528.307 88.8606 529.038 87.5976C529.769 86.3346 530.788 85.2623 532.012 84.4685C534.449 83.0237 536.325 84.1019 536.325 86.8621Z" fill="#0C0C0C"/>
<path d="M527.916 85.2234C527.916 86.086 528.519 86.4311 529.274 85.9998C529.67 85.7425 529.999 85.3956 530.235 84.9871C530.471 84.5787 530.607 84.1203 530.633 83.6493C530.633 82.7867 530.029 82.4416 529.274 82.8729C528.879 83.1302 528.55 83.4771 528.313 83.8856C528.077 84.294 527.941 84.7524 527.916 85.2234Z" fill="#22222C"/>
<path d="M533.09 80.6947C532.551 81.6005 532.551 82.5924 533.09 82.8512C533.63 83.11 534.492 82.6356 535.01 81.7298C535.527 80.8241 535.549 79.8106 535.01 79.5734C534.471 79.3362 533.63 79.7675 533.09 80.6947Z" fill="#22222C"/>
<path d="M537.705 81.1478C537.306 81.4026 536.973 81.7485 536.733 82.1571C536.493 82.5657 536.353 83.0253 536.325 83.4983C536.325 84.3609 536.929 84.7059 537.684 84.2746C538.079 84.0174 538.408 83.6704 538.644 83.262C538.88 82.8536 539.017 82.3952 539.042 81.9241C539.064 81.0615 538.482 80.6949 537.705 81.1478Z" fill="#22222C"/>
<path d="M539.042 86.3012C538.525 85.9993 537.662 86.4953 537.123 87.4226C536.584 88.3499 536.584 89.3203 537.123 89.579C537.662 89.8378 538.525 89.3849 539.042 88.4792C539.56 87.5735 539.581 86.6031 539.042 86.3012Z" fill="#22222C"/>
<path d="M536.324 93.1597C536.324 92.2972 535.699 91.9521 534.944 92.3834C534.549 92.6407 534.22 92.9876 533.984 93.3961C533.748 93.8045 533.611 94.2629 533.586 94.734C533.586 95.6181 534.19 95.9631 534.944 95.5103C535.343 95.2542 535.675 94.9079 535.915 94.4996C536.155 94.0913 536.295 93.6323 536.324 93.1597Z" fill="#22222C"/>
<path d="M531.149 97.6442C531.688 96.7169 531.688 95.7249 531.149 95.4877C530.61 95.2505 529.769 95.6818 529.23 96.6091C528.691 97.5363 528.691 98.5067 529.23 98.7655C529.769 99.0243 530.632 98.6146 531.149 97.6442Z" fill="#22222C"/>
<path d="M526.535 97.2556C526.933 96.9995 527.265 96.6533 527.505 96.245C527.745 95.8367 527.885 95.3777 527.915 94.9051C527.915 94.0425 527.289 93.6975 526.535 94.1288C526.139 94.386 525.81 94.733 525.574 95.1414C525.338 95.5499 525.202 96.0082 525.176 96.4793C525.176 97.3419 525.78 97.6438 526.535 97.2556Z" fill="#22222C"/>
<path d="M525.198 92.0806C525.737 92.4041 526.6 91.8865 527.117 90.9808C527.635 90.0751 527.656 89.0616 527.117 88.8244C526.578 88.5872 525.737 89.0185 525.198 89.9457C524.659 90.873 524.659 91.7787 525.198 92.0806Z" fill="#22222C"/>
<path d="M502.022 119.588C508.971 107.635 509.008 94.6919 502.105 90.6783C495.202 86.6647 483.972 93.1008 477.023 105.054C470.073 117.006 470.036 129.95 476.939 133.963C483.843 137.977 495.072 131.541 502.022 119.588Z" fill="#0C0C0C"/>
<path d="M502.555 106.271C502.321 110.359 501.13 114.335 499.077 117.879C497.025 121.422 494.168 124.434 490.738 126.671C484.268 130.423 478.899 127.425 478.899 119.921C479.132 115.83 480.325 111.851 482.382 108.307C484.439 104.763 487.301 101.753 490.738 99.5211C497.25 95.7688 502.555 98.7879 502.555 106.271Z" fill="#B7B4BA"/>
<path d="M501.822 106.701C501.607 110.531 500.494 114.256 498.572 117.575C496.65 120.894 493.974 123.715 490.76 125.807C484.635 129.344 479.676 126.519 479.676 119.489C479.893 115.658 481.01 111.931 482.935 108.612C484.861 105.292 487.541 102.473 490.76 100.383C496.841 96.8463 501.822 99.6713 501.822 106.701Z" fill="#929197"/>
<path d="M500.593 107.391C500.401 110.805 499.409 114.125 497.698 117.085C495.986 120.044 493.602 122.559 490.738 124.427C485.283 127.554 480.862 125.053 480.862 118.799C481.051 115.385 482.044 112.065 483.761 109.108C485.477 106.151 487.868 103.642 490.738 101.785C496.173 98.6362 500.593 101.138 500.593 107.391Z" fill="#B7B4BA"/>
<path d="M499.666 107.91C499.513 111.031 498.625 114.072 497.073 116.786C495.522 119.499 493.351 121.807 490.739 123.522C485.757 126.412 481.725 124.104 481.725 118.411C481.897 115.296 482.804 112.266 484.371 109.568C485.937 106.869 488.119 104.58 490.739 102.885C495.699 99.9092 499.666 102.195 499.666 107.91Z" fill="#B2AAAB"/>
<path d="M494.943 110.582C494.853 112.049 494.415 113.473 493.664 114.737C492.914 116.001 491.874 117.068 490.63 117.849C488.301 119.186 486.317 118.108 486.317 115.434C486.414 113.969 486.855 112.547 487.604 111.285C488.354 110.022 489.39 108.954 490.63 108.167C493.067 106.916 494.943 107.994 494.943 110.582Z" fill="#0C0C0C"/>
<path d="M486.512 109.117C486.512 110.001 487.116 110.346 487.871 109.914C488.271 109.655 488.604 109.305 488.844 108.893C489.083 108.481 489.223 108.018 489.251 107.542C489.251 106.68 488.626 106.335 487.871 106.766C487.477 107.025 487.148 107.372 486.912 107.78C486.676 108.188 486.539 108.646 486.512 109.117Z" fill="#22222C"/>
<path d="M491.686 104.588C491.169 105.515 491.169 106.507 491.686 106.745C492.204 106.982 493.088 106.55 493.627 105.623C494.166 104.696 494.145 103.726 493.627 103.467C493.11 103.208 492.225 103.682 491.686 104.588Z" fill="#22222C"/>
<path d="M496.302 105.041C495.906 105.298 495.577 105.645 495.341 106.054C495.105 106.462 494.969 106.92 494.943 107.391C494.943 108.254 495.547 108.599 496.302 108.168C496.7 107.912 497.032 107.565 497.272 107.157C497.512 106.749 497.652 106.29 497.682 105.817C497.682 104.955 497.056 104.61 496.302 105.041Z" fill="#22222C"/>
<path d="M497.66 110.196C497.121 109.894 496.259 110.39 495.72 111.317C495.18 112.244 495.202 113.236 495.72 113.474C496.237 113.711 497.121 113.279 497.66 112.352C498.199 111.425 498.199 110.584 497.66 110.196Z" fill="#22222C"/>
<path d="M494.943 117.052C494.943 116.19 494.339 115.823 493.585 116.276C493.189 116.533 492.86 116.88 492.624 117.289C492.388 117.697 492.252 118.155 492.226 118.626C492.226 119.489 492.83 119.834 493.585 119.403C493.98 119.146 494.309 118.799 494.545 118.39C494.781 117.982 494.918 117.523 494.943 117.052Z" fill="#22222C"/>
<path d="M489.767 121.602C490.306 120.675 490.306 119.683 489.767 119.446C489.228 119.209 488.365 119.64 487.826 120.567C487.287 121.495 487.309 122.487 487.826 122.724C488.344 122.961 489.228 122.53 489.767 121.602Z" fill="#22222C"/>
<path d="M485.152 121.149C485.547 120.891 485.877 120.545 486.113 120.136C486.349 119.728 486.485 119.269 486.511 118.798C486.511 117.936 485.907 117.591 485.152 118.022C484.757 118.279 484.427 118.626 484.191 119.034C483.955 119.443 483.819 119.901 483.793 120.372C483.793 121.235 484.397 121.58 485.152 121.149Z" fill="#22222C"/>
<path d="M483.794 115.995C484.333 116.297 485.195 115.801 485.735 114.874C486.274 113.947 486.274 112.955 485.735 112.718C485.195 112.48 484.333 112.912 483.794 113.839C483.255 114.766 483.276 115.694 483.794 115.995Z" fill="#22222C"/>
<path d="M639.36 20.4435L641.948 18.9556V9.53194L646.476 -1.7678L652.428 -6.81387L676.278 -20.5935L681.928 -6.36102L684.537 -7.87053L677.658 -27.6235L652.428 -13.0676L645.657 -7.15891L639.36 7.95774V20.4435Z" fill="#2F2F2D"/>
<path d="M640.115 115.544L627.176 93.0523L650.638 80.1136C651.697 79.5332 652.9 79.2693 654.104 79.3534C655.308 79.4376 656.463 79.8661 657.431 80.588C660.105 82.3183 662.333 84.6558 663.933 87.4101C665.533 90.1643 666.46 93.2576 666.639 96.4379C666.749 97.5473 666.571 98.6662 666.121 99.6864C665.671 100.707 664.966 101.593 664.073 102.26L640.115 115.544Z" fill="#181818"/>
<path d="M622.777 100.383C622.829 103.587 623.673 106.728 625.235 109.526C626.853 112.324 629.182 114.645 631.985 116.254C633.301 116.778 634.722 116.987 636.134 116.863C637.546 116.74 638.909 116.288 640.115 115.543C641.015 114.876 641.727 113.987 642.18 112.963C642.634 111.938 642.814 110.813 642.702 109.699C642.524 106.515 641.597 103.419 639.997 100.661C638.397 97.9037 636.169 95.5623 633.494 93.8273C632.6 93.1848 631.559 92.777 630.466 92.6414C629.374 92.5058 628.265 92.6466 627.241 93.051C625.982 93.8464 624.924 94.9221 624.15 96.1939C623.375 97.4658 622.905 98.8994 622.777 100.383Z" fill="#1D1D1D"/>
<path d="M623.273 101.656C623.435 104.252 624.201 106.774 625.512 109.021C626.823 111.267 628.641 113.176 630.821 114.594C634.983 116.988 638.369 115.069 638.369 110.281C638.207 107.686 637.441 105.163 636.13 102.917C634.819 100.67 633.001 98.7611 630.821 97.3428C626.659 94.9492 623.273 96.8684 623.273 101.656Z" fill="#1D1D1D"/>
<path d="M585.664 52.1221C585.485 55.3026 584.56 58.3963 582.964 61.1534C581.368 63.9105 579.146 66.2536 576.478 67.9935C571.389 70.9262 567.27 68.5757 567.27 62.7318C567.448 59.5514 568.375 56.4582 569.976 53.7039C571.576 50.9497 573.804 48.6122 576.478 46.8819C581.61 43.9492 585.664 46.2997 585.664 52.1221Z" fill="#0C0C0C"/>
<path d="M605.482 50.1386L634.421 33.4262V18.9133L605.482 35.6257V50.1386Z" fill="#F3EDF2"/>
<path d="M460.547 144.871L459.405 143.987C465.68 135.943 461.561 112.438 461.561 112.201L462.984 111.942C463.2 112.934 467.189 136.331 460.547 144.871Z" fill="#2F2F2D"/>
<path d="M638.088 42.3531L636.966 41.4689C643.242 33.4039 641.84 8.30288 641.84 8.06567H643.263C643.328 9.03607 644.708 33.8567 638.088 42.3531Z" fill="#2F2F2D"/>
<path d="M609.773 14.9233L590.926 25.8134V19.1068L609.773 8.2168V14.9233Z" fill="#F3EDF2"/>
<path d="M451.189 110.259L525.176 152.979L540.25 41.5336L466.262 -1.20703L451.189 110.259Z" fill="#285631"/>
<path d="M536.476 55.3782L507.752 77.2229L474.737 156.041L478.101 201.046L504.841 185.606L524.12 152.375L536.476 55.3782Z" fill="#D8D5DC"/>
<path d="M498.307 99.7359L480.106 156.084L482.888 192.441L501.11 181.918L516.938 156.946L531.128 53.2214L519.311 60.0574L498.307 99.7359Z" fill="#B4AEBC"/>
<path d="M498.07 179.848L513.898 154.876L527.527 55.3132L531.128 53.2214L516.939 156.946L501.11 181.918L482.888 192.441L482.608 188.775L498.07 179.848Z" fill="#798580"/>
<path d="M439.221 23.959L430.66 42.1594L420.287 126.67L422.854 128.18L472.581 7.67788L469.972 6.18994L439.221 23.959Z" fill="#62A868"/>
<path d="M430.66 42.1606L433.248 43.6486L422.854 128.181L420.287 126.672L430.66 42.1606Z" fill="#437E48"/>
<path d="M441.809 25.4471L433.248 43.6474L422.854 128.18L459.233 107.176L472.581 7.67798L441.809 25.4471Z" fill="#36703A"/>
<path d="M467.664 15.635L438.94 37.5013L405.925 116.298L409.268 161.324L436.029 145.862L460.483 107.888L467.664 15.635Z" fill="#ABA4A9"/>
<path d="M438.983 66.3554L507.795 106.077L507.752 77.2238L438.94 37.5022L438.983 66.3554Z" fill="#D6CEDC"/>
<path d="M507.752 77.2228L503.979 75.0664L470.985 153.884L474.737 156.041L507.752 77.2228Z" fill="#E5E0E9"/>
<path d="M442.692 39.6586L438.94 37.5022L405.925 116.299L409.699 118.477L442.692 39.6586Z" fill="#E5E0E9"/>
<path d="M405.925 116.297L474.737 156.041L478.101 201.045L409.268 161.324L405.925 116.297Z" fill="#C9C4CE"/>
<path d="M494.296 98.6575L494.771 102.582L470.985 153.884L473.055 198.134L466.414 197.746L464.451 167.75L488.086 103.013L494.296 98.6575Z" fill="#0F3015"/>
<path d="M406.464 115.175L405.235 114.895C405.015 114.824 404.812 114.709 404.637 114.557C404.463 114.405 404.322 114.219 404.222 114.011C404.051 113.605 403.964 113.168 403.964 112.728C403.964 112.287 404.051 111.851 404.222 111.445L409.44 98.0748C409.638 97.3247 410.064 96.6544 410.659 96.1562C411.253 95.658 411.988 95.3564 412.761 95.293H414.292L414.184 96.7378L412.653 96.6084C412.2 96.6084 411.295 97.2769 410.863 98.4198L405.645 111.79C405.47 112.241 405.47 112.741 405.645 113.191C405.645 113.191 405.645 113.321 405.774 113.321L407.003 113.687L406.464 115.175Z" fill="#D8D5DC"/>
<path d="M632.265 -71.5929V-31.2028C632.396 -19.974 633.587 -8.78265 635.824 2.22204L688.29 32.5416L704.636 41.9653C707.06 32.3728 708.249 22.5099 708.172 12.6161V-27.7525L704.636 -55.5922C703.989 -56.1097 683.308 -72.8437 679.664 -75.0001L660.817 -85.7823C657.129 -87.9388 635.845 -95.2922 635.845 -95.2922L633.689 -80.4775L632.265 -71.5929Z" fill="#D8D5DC"/>
<path d="M615.963 -62.1473V-21.7572C616.091 -10.5222 617.275 0.675804 619.499 11.6892L671.987 41.8794L688.311 51.3031C690.733 41.783 691.928 31.9926 691.869 22.1695V-18.3069L688.311 -46.1465C687.686 -46.6641 666.984 -63.3981 663.34 -65.5545L644.514 -76.4445C640.826 -78.601 619.521 -85.9329 619.521 -85.9329L617.364 -71.1397L615.963 -62.1473Z" fill="#E1E0E6"/>
<path d="M619.477 -81.2754L642.292 -72.9731L664.805 -59.9698L688.289 -41.5537L555.927 34.8705L487.115 -4.85111L619.477 -81.2754Z" fill="#FCFBFA"/>
<path d="M487.115 -4.85113L619.477 -81.2754L642.292 -72.9731L503.719 3.1277L487.115 -4.85113Z" fill="#F8F4FC"/>
<path d="M524.788 20.8753L664.806 -59.9697L688.289 -41.5537L555.927 34.8706L524.788 20.8753Z" fill="#F8F4FC"/>
<path d="M506.868 4.96063L642.293 -72.9731L664.806 -59.9698L526.535 16.0016L506.868 4.96063Z" fill="#FCFBFA"/>
<path d="M432.687 70.9274L488.086 103.015L494.297 98.6592L438.984 66.3557L432.687 70.9274Z" fill="#62A868"/>
<path d="M507.796 206.825L479.676 223.041V225.09L507.796 208.873V206.825Z" fill="#B4AEBC"/>
<path d="M489.508 194.447L485.648 196.69L482.888 211.461L485.39 210.017L489.508 194.447Z" fill="#B4AEBC"/>
<path d="M500.507 188.108L496.646 190.329L493.886 205.1L496.388 203.656L500.507 188.108Z" fill="#B4AEBC"/>
<path d="M555.927 34.8706L542.191 138.444L688.29 54.0844V-41.5537L555.927 34.8706Z" fill="#C9C4CE"/>
<path d="M550.988 116.449L680.008 41.9441V-30.4045L561.21 38.1703L550.988 116.449Z" fill="#D0CCD5"/>
<path d="M554.697 102.755L562.46 41.2967L672.806 -22.4045V34.5902L554.697 102.755Z" fill="#C9C4CE"/>
<path d="M678.585 54.6658L659.738 65.5343V58.8278L678.585 47.9377V54.6658Z" fill="#798580"/>
<path d="M525.176 152.979L544.606 141.765L559.701 30.2988L540.25 41.5339L525.176 152.979Z" fill="#437E48"/>
<path d="M474.069 154.531L472.84 154.164C472.617 154.104 472.411 153.996 472.236 153.847C472.06 153.698 471.92 153.511 471.826 153.301C471.646 152.898 471.553 152.46 471.553 152.018C471.553 151.576 471.646 151.139 471.826 150.735L477.023 137.365C477.235 136.637 477.661 135.988 478.245 135.504C478.829 135.019 479.545 134.721 480.301 134.648L481.81 134.778V136.201H480.279C479.826 136.201 478.942 136.891 478.489 138.012L473.292 151.382C473.067 151.814 473.02 152.318 473.163 152.784C473.163 152.913 473.163 152.913 473.314 152.935L474.543 153.28L474.069 154.531Z" fill="#F3EDF2"/>
<path d="M485.713 -12.4202L559.701 30.2989L540.25 41.534L466.262 -1.20667L485.713 -12.4202Z" fill="#62A868"/>
<path d="M467.664 15.635L536.476 55.3782L507.752 77.223L438.94 37.5013L467.664 15.635Z" fill="#C9C4CE"/>
<path d="M468.764 14.8157L537.576 54.5373L508.852 76.3821L440.04 36.6604L468.764 14.8157Z" fill="#F8F4FC"/>
<path d="M432.687 70.9263L488.086 103.014L464.451 167.75L466.413 197.747L472.883 209.585L417.57 177.282L411.101 165.443L409.138 135.447L432.687 70.9263Z" fill="#437E48"/>
<path d="M466.414 197.747L411.101 165.443L417.57 177.282L472.883 209.585L466.414 197.747Z" fill="#28432A"/>
<path d="M440.083 47.5498L439.048 48.1537V30.708L440.083 30.1042V47.5498Z" fill="#F3EDF2"/>
<path d="M442.455 55.8949C442.661 55.8949 442.859 55.8131 443.004 55.6675C443.15 55.5219 443.232 55.3244 443.232 55.1185V42.1799C443.232 41.974 443.15 41.7765 443.004 41.631C442.859 41.4854 442.661 41.4036 442.455 41.4036C442.249 41.4036 442.052 41.4854 441.906 41.631C441.761 41.7765 441.679 41.974 441.679 42.1799V55.1185C441.679 55.3244 441.761 55.5219 441.906 55.6675C442.052 55.8131 442.249 55.8949 442.455 55.8949Z" fill="#D8D5DC"/>
<path d="M439.048 48.1534L444.806 51.4743V34.0503L439.048 30.7078V48.1534Z" fill="#FCFBFA"/>
<path d="M445.863 50.8714L444.806 51.4752V34.0512L445.863 33.4258V50.8714Z" fill="#B0A9B8"/>
<path d="M440.083 30.1042L439.048 30.708L444.806 34.0505L445.862 33.4252L440.083 30.1042Z" fill="#F3EDF2"/>
<path d="M438.595 48.4136L443.037 50.9797V35.0652L438.595 32.499V48.4136Z" fill="#BA1914"/>
<path d="M439.501 39.2482L442.11 40.7577V36.186L439.501 34.6765V39.2482Z" fill="#D8D5DC"/>
<path d="M444.137 50.3531L443.037 50.9785V35.0639L444.137 34.417V50.3531Z" fill="#6F0A14"/>
<path d="M438.595 48.4127L443.037 50.9789V46.9464L438.595 44.3586V48.4127Z" fill="#FF8D22"/>
<path d="M444.137 50.3537L443.037 50.979V46.9465L444.137 46.2996V50.3537Z" fill="#B84F22"/>
<path d="M444.137 34.418L443.037 35.0649L438.595 32.4987L439.695 31.8518L444.137 34.418Z" fill="#DD363B"/>
<path d="M491.601 77.2874L490.544 77.8912V60.4456L491.601 59.8418V77.2874Z" fill="#F3EDF2"/>
<path d="M494.792 70.1711H493.239V84.684H494.792V70.1711Z" fill="#F3EDF2"/>
<path d="M494.016 87.1866C494.221 87.1866 494.419 87.1048 494.565 86.9592C494.71 86.8136 494.792 86.6162 494.792 86.4103V73.4716C494.792 73.2657 494.71 73.0683 494.565 72.9227C494.419 72.7771 494.221 72.6953 494.016 72.6953C493.81 72.6953 493.612 72.7771 493.467 72.9227C493.321 73.0683 493.239 73.2657 493.239 73.4716V86.4103C493.239 86.6162 493.321 86.8136 493.467 86.9592C493.612 87.1048 493.81 87.1866 494.016 87.1866Z" fill="#D8D5DC"/>
<path d="M490.544 77.8924L496.323 81.2349V63.7893L490.544 60.4468V77.8924Z" fill="#FCFBFA"/>
<path d="M497.38 80.6086L496.323 81.234V63.7884L497.38 63.1846V80.6086Z" fill="#B0A9B8"/>
<path d="M491.601 59.8418L490.544 60.4456L496.323 63.7881L497.38 63.1843L491.601 59.8418Z" fill="#F3EDF2"/>
<path d="M490.091 78.1501L494.555 80.7379V64.8017L490.091 62.2356V78.1501Z" fill="#BA1914"/>
<path d="M491.018 68.9855L493.628 70.495V65.9233L491.018 64.4138V68.9855Z" fill="#D8D5DC"/>
<path d="M495.654 80.0906L494.554 80.7376V64.8015L495.654 64.1545V80.0906Z" fill="#6F0A14"/>
<path d="M490.091 78.1503L494.555 80.738V76.6839L490.091 74.0962V78.1503Z" fill="#FF8D22"/>
<path d="M495.654 80.0905L494.554 80.7374V76.6833L495.654 76.0364V80.0905Z" fill="#B84F22"/>
<path d="M495.655 64.1548L494.555 64.8017L490.091 62.2356L491.213 61.5886L495.655 64.1548Z" fill="#DD363B"/>
<path d="M505.446 62.1922L496.885 80.3925L486.512 164.903L489.1 166.413L538.806 45.911L536.218 44.4231L505.446 62.1922Z" fill="#62A868"/>
<path d="M496.885 80.3928L499.472 81.8808L489.1 166.413L486.512 164.904L496.885 80.3928Z" fill="#437E48"/>
<path d="M508.033 63.6812L499.472 81.8816L489.099 166.414L525.478 145.41L538.805 45.9121L508.033 63.6812Z" fill="#437E48"/>
<path d="M476.893 215.364H475.341V210.362C475.335 210.111 475.265 209.865 475.139 209.648C475.013 209.431 474.834 209.25 474.619 209.121C474.403 208.992 474.159 208.919 473.908 208.91C473.657 208.901 473.408 208.955 473.184 209.068C472.721 209.354 472.187 209.506 471.642 209.506C471.098 209.506 470.564 209.354 470.1 209.068C469.639 208.807 469.256 208.427 468.991 207.968C468.725 207.51 468.587 206.988 468.591 206.458V168.958C468.594 166.977 469.117 165.032 470.109 163.318C471.101 161.603 472.526 160.179 474.241 159.189L496.107 146.941C496.254 146.867 496.377 146.752 496.461 146.611C496.545 146.47 496.587 146.307 496.581 146.143C496.586 145.976 496.544 145.811 496.46 145.666C496.376 145.521 496.254 145.403 496.107 145.323L494.641 144.504L495.395 143.145L496.862 143.986C497.251 144.195 497.575 144.507 497.799 144.887C498.024 145.267 498.139 145.701 498.134 146.143C498.135 146.583 498.017 147.016 497.793 147.395C497.569 147.774 497.248 148.087 496.862 148.299L474.996 160.526C473.519 161.384 472.294 162.614 471.442 164.093C470.591 165.573 470.143 167.251 470.144 168.958V206.501C470.147 206.753 470.215 206.999 470.342 207.217C470.468 207.434 470.648 207.615 470.865 207.743C471.081 207.871 471.327 207.941 471.578 207.946C471.83 207.951 472.078 207.892 472.3 207.774C472.771 207.499 473.307 207.354 473.853 207.354C474.398 207.354 474.934 207.499 475.405 207.774C475.867 208.04 476.249 208.424 476.514 208.886C476.779 209.348 476.918 209.872 476.915 210.405L476.893 215.364Z" fill="#6F9C72"/>
<path d="M409.138 135.448L464.451 167.751L466.413 197.747L411.101 165.444L409.138 135.448Z" fill="#285631"/>
<path d="M672.806 34.5906L680.009 41.9441V-30.4045L672.806 -22.4041V34.5906Z" fill="#BCB6BA"/>
<path d="M672.806 -22.4041L562.461 41.2971L561.21 38.1703L680.009 -30.4045L672.806 -22.4041Z" fill="#ABA4A9"/>
<path d="M562.461 41.2973L554.697 102.756L550.988 116.449L561.21 38.1704L562.461 41.2973Z" fill="#968D93"/>
<path d="M463.179 181.681L461.001 182.931V207.795L463.179 206.544V181.681Z" fill="#798580"/>
<path d="M415.134 181.314L461.001 207.795V182.932L415.134 156.45V181.314Z" fill="#D8D5DC"/>
<path d="M415.134 156.451L461.001 182.932L463.179 181.681L417.312 155.2L415.134 156.451Z" fill="#F3EDF2"/>
<path d="M633.365 51.3026C633.47 51.5365 633.525 51.7901 633.525 52.0466C633.525 52.3031 633.47 52.5567 633.365 52.7906C633.365 52.9631 633.235 53.0709 633.171 53.0925L619.132 61.2007V49.7284L627.909 44.6824L633.365 51.3026Z" fill="#62A868"/>
<path d="M604.232 57.1462L594.549 62.7098C594.299 62.9051 594 63.0284 593.684 63.0664C593.369 63.1044 593.049 63.0557 592.76 62.9255L598.258 49.7927L606.69 51.1082L604.232 57.1462Z" fill="#62A868"/>
<path d="M615.639 38.1264L603.433 48.3048L600.738 35.8406L603.972 36.3366L608.997 24.3252C609.868 22.2145 611.376 20.428 613.31 19.2144L622.453 13.9312L612.49 37.652L615.639 38.1264Z" fill="#62A868"/>
<path d="M616.976 28.9834L621.634 17.7053C621.94 16.9204 622.483 16.2499 623.186 15.786C623.316 15.786 623.424 15.6566 623.488 15.786L630.54 24.4118L622.108 35.4528L616.976 28.9834Z" fill="#62A868"/>
<path d="M624.373 46.2348L627.068 30.7947L639.274 26.8484L636.061 31.1613L639.468 35.1076C639.974 35.9848 640.255 36.9739 640.285 37.9862C640.315 38.9986 640.093 40.0026 639.64 40.9084L635.565 51.6906L627.607 41.9435L624.373 46.2348Z" fill="#62A868"/>
<path d="M608.738 55.7665V51.4536L617.601 56.4781L608.738 71.7242V67.4113L599.962 72.4789C598.236 73.4709 596.641 73.3199 595.821 72.0692L591.659 65.7724L608.738 55.7665Z" fill="#62A868"/>
<path d="M414.508 133.203L427.49 140.772L461.475 160.633L477.045 120.07L482.738 105.277L463.179 93.9559L435.662 78.0198L414.508 133.203Z" fill="#285631"/>
<path d="M427.49 140.773L461.476 160.634L477.045 120.071L463.179 112.006L427.49 140.773Z" fill="#194222"/>
<path d="M554.245 125.463L650.616 69.8269V72.9106L554.245 128.547V125.463Z" fill="#C4DDBD"/>
<path d="M559.657 122.336L556.509 124.147L554.245 128.546L557.393 126.735L559.657 122.336Z" fill="#FF6D5E"/>
<path d="M567.939 117.548L564.769 119.381L562.505 123.78L565.653 121.969L567.939 117.548Z" fill="#FF6D5E"/>
<path d="M576.198 112.783L573.05 114.594L570.786 119.015L573.934 117.182L576.198 112.783Z" fill="#FF6D5E"/>
<path d="M584.456 108.018L581.308 109.829L579.044 114.228L582.192 112.417L584.456 108.018Z" fill="#FF6D5E"/>
<path d="M592.738 103.23L589.589 105.063L587.303 109.462L590.473 107.65L592.738 103.23Z" fill="#FF6D5E"/>
<path d="M600.997 98.4634L597.848 100.275L595.584 104.695L598.733 102.863L600.997 98.4634Z" fill="#FF6D5E"/>
<path d="M609.278 93.6978L606.108 95.5092L603.843 99.9083L607.013 98.0969L609.278 93.6978Z" fill="#FF6D5E"/>
<path d="M617.536 88.9109L614.388 90.7439L612.124 95.143L615.272 93.3316L617.536 88.9109Z" fill="#FF6D5E"/>
<path d="M625.796 84.1453L622.647 85.9567L620.383 90.3774L623.531 88.5444L625.796 84.1453Z" fill="#FF6D5E"/>
<path d="M634.077 79.3584L630.929 81.1914L628.643 85.5905L631.813 83.7791L634.077 79.3584Z" fill="#FF6D5E"/>
<path d="M642.336 74.5918L639.187 76.4032L636.923 80.8239L640.071 79.0125L642.336 74.5918Z" fill="#FF6D5E"/>
<path d="M650.617 69.8269L647.447 71.6383L645.183 76.059L648.331 74.226L650.617 69.8269Z" fill="#FF6D5E"/>
<path d="M529.403 37.9975L481.811 10.5244V13.6297L529.403 41.1027V37.9975Z" fill="#F3EDF2"/>
<path d="M523.99 34.8706L527.138 36.682L529.403 41.1027L526.254 39.2913L523.99 34.8706Z" fill="#FF6D5E"/>
<path d="M516.96 30.8162L520.109 32.6276L522.373 37.0483L519.225 35.2369L516.96 30.8162Z" fill="#FF6D5E"/>
<path d="M509.93 26.7617L513.079 28.5731L515.343 32.9938L512.194 31.1609L509.93 26.7617Z" fill="#FF6D5E"/>
<path d="M502.9 22.707L506.048 24.5184L508.312 28.9176L505.164 27.1062L502.9 22.707Z" fill="#FF6D5E"/>
<path d="M495.871 18.6328L499.019 20.4658L501.283 24.8649L498.135 23.0535L495.871 18.6328Z" fill="#FF6D5E"/>
<path d="M488.841 14.5791L491.989 16.3905L494.253 20.8112L491.105 18.9782L488.841 14.5791Z" fill="#FF6D5E"/>
<path d="M481.811 10.5244L484.959 12.3358L487.223 16.7565L484.075 14.9236L481.811 10.5244Z" fill="#FF6D5E"/>
</g>
</g>
<defs>
<linearGradient id="paint0_linear_843_21302" x1="581.424" y1="184.45" x2="82.6968" y2="-91.785" gradientUnits="userSpaceOnUse">
<stop stop-color="#ABCDBC"/>
<stop offset="1" stop-color="#FFEDC1" stop-opacity="0.3"/>
</linearGradient>
<clipPath id="clip0_843_21302">
<rect width="677" height="248" rx="20" fill="white"/>
</clipPath>
<clipPath id="clip1_843_21302">
<rect width="436.701" height="358.422" fill="white" transform="translate(394 -118)"/>
</clipPath>
</defs>
</svg>
