<svg width="150" height="112" viewBox="0 0 150 112" fill="none" xmlns="http://www.w3.org/2000/svg">
<rect width="150" height="112" rx="10" fill="#CCE1D7"/>
<path d="M76.6673 43.5834H58.334C57.6507 43.5834 57.084 43.0167 57.084 42.3334V31.7001C57.084 31.1667 57.4173 30.7 57.9006 30.5167C58.4006 30.3334 58.9507 30.4834 59.284 30.8834C60.284 32.0668 61.734 32.7334 63.3173 32.7334C63.3673 32.7334 63.4007 32.7334 63.4507 32.7334C64.784 32.7001 66.0173 32.2001 66.9506 31.3168C67.384 30.9501 67.734 30.5167 68.0006 30.0334C68.5173 29.1501 68.7673 28.1834 68.7507 27.2001C68.7173 25.6667 68.0507 24.2667 66.9174 23.2501C66.5174 22.9001 66.384 22.35 66.5673 21.8667C66.7507 21.3834 67.2173 21.05 67.734 21.05H80.0007C80.684 21.05 81.2507 21.6167 81.2507 22.3V38.9667C81.2507 41.5334 79.2007 43.5834 76.6673 43.5834ZM59.584 41.0834H76.6673C77.8173 41.0834 78.7507 40.1501 78.7507 39.0001V23.5834H70.3173C70.9007 24.6667 71.2173 25.8834 71.2507 27.1501C71.284 28.6001 70.9173 30.0334 70.184 31.2834C69.784 32.0001 69.234 32.6834 68.634 33.1834C67.3006 34.4501 65.4673 35.2001 63.5173 35.2501C62.134 35.3001 60.7673 34.9501 59.6007 34.3168V41.0834H59.584Z" fill="#026937"/>
<path d="M86.6673 53.5833H85.0007C84.3173 53.5833 83.7507 53.0166 83.7507 52.3333C83.7507 51.1833 82.8173 50.2499 81.6673 50.2499C80.5173 50.2499 79.584 51.1833 79.584 52.3333C79.584 53.0166 79.0173 53.5833 78.334 53.5833H71.6673C70.984 53.5833 70.4173 53.0166 70.4173 52.3333C70.4173 51.1833 69.484 50.2499 68.334 50.2499C67.184 50.2499 66.2507 51.1833 66.2507 52.3333C66.2507 53.0166 65.684 53.5833 65.0007 53.5833H63.334C59.884 53.5833 57.084 50.7832 57.084 47.3333V42.3333C57.084 41.6499 57.6507 41.0833 58.334 41.0833H76.6673C77.8173 41.0833 78.7507 40.1499 78.7507 38.9999V27.3333C78.7507 26.6499 79.3173 26.0833 80.0007 26.0833H83.0674C84.7174 26.0833 86.234 26.9666 87.0506 28.3999L89.9007 33.3833C90.1173 33.7666 90.1173 34.2499 89.9007 34.6333C89.684 35.0166 89.2673 35.2499 88.8173 35.2499H86.6673C86.434 35.2499 86.2507 35.4333 86.2507 35.6666V40.6666C86.2507 40.8999 86.434 41.0833 86.6673 41.0833H91.6673C92.3507 41.0833 92.9173 41.6499 92.9173 42.3333V47.3333C92.9173 50.7832 90.1173 53.5833 86.6673 53.5833ZM86.084 51.0833H86.6673C88.734 51.0833 90.4173 49.3999 90.4173 47.3333V43.5833H86.6673C85.0673 43.5833 83.7507 42.2666 83.7507 40.6666V35.6666C83.7507 34.0666 85.0506 32.7499 86.6673 32.7499L84.884 29.6333C84.5173 28.9833 83.8174 28.5833 83.0674 28.5833H81.2507V38.9999C81.2507 41.5333 79.2007 43.5833 76.6673 43.5833H59.584V47.3333C59.584 49.3999 61.2673 51.0833 63.334 51.0833H63.9173C64.4673 49.1666 66.234 47.7499 68.334 47.7499C70.434 47.7499 72.2007 49.1666 72.7507 51.0833H77.2673C77.8173 49.1666 79.584 47.7499 81.684 47.7499C83.784 47.7499 85.534 49.1666 86.084 51.0833Z" fill="#026937"/>
<path d="M68.3326 56.9167C65.7993 56.9167 63.7493 54.8667 63.7493 52.3333C63.7493 49.8 65.7993 47.75 68.3326 47.75C70.8659 47.75 72.9159 49.8 72.9159 52.3333C72.9159 54.8667 70.8659 56.9167 68.3326 56.9167ZM68.3326 50.25C67.1826 50.25 66.2493 51.1833 66.2493 52.3333C66.2493 53.4833 67.1826 54.4167 68.3326 54.4167C69.4826 54.4167 70.4159 53.4833 70.4159 52.3333C70.4159 51.1833 69.4826 50.25 68.3326 50.25Z" fill="#026937"/>
<path d="M81.6668 56.9167C79.1335 56.9167 77.0835 54.8667 77.0835 52.3333C77.0835 49.8 79.1335 47.75 81.6668 47.75C84.2002 47.75 86.2502 49.8 86.2502 52.3333C86.2502 54.8667 84.2002 56.9167 81.6668 56.9167ZM81.6668 50.25C80.5168 50.25 79.5835 51.1833 79.5835 52.3333C79.5835 53.4833 80.5168 54.4167 81.6668 54.4167C82.8168 54.4167 83.7502 53.4833 83.7502 52.3333C83.7502 51.1833 82.8168 50.25 81.6668 50.25Z" fill="#026937"/>
<path d="M91.6674 43.5833H86.6674C85.0674 43.5833 83.7507 42.2667 83.7507 40.6667V35.6667C83.7507 34.0667 85.0674 32.75 86.6674 32.75H88.8174C89.2674 32.75 89.6841 32.9833 89.9007 33.3833L92.7508 38.3833C92.8508 38.5667 92.9174 38.7833 92.9174 39V42.3333C92.9174 43.0167 92.3507 43.5833 91.6674 43.5833ZM86.6674 35.25C86.4341 35.25 86.2507 35.4333 86.2507 35.6667V40.6667C86.2507 40.9 86.4341 41.0833 86.6674 41.0833H90.4174V39.3334L88.084 35.25H86.6674Z" fill="#026937"/>
<path d="M63.3339 35.2501C60.5672 35.2501 57.9672 33.7834 56.5672 31.4001C55.8172 30.2001 55.4172 28.7834 55.4172 27.3334C55.4172 24.9001 56.5006 22.65 58.384 21.15C59.784 20.0334 61.5506 19.4167 63.3339 19.4167C67.7006 19.4167 71.2506 22.9667 71.2506 27.3334C71.2506 28.7834 70.8506 30.2001 70.1006 31.4168C69.6839 32.1168 69.1505 32.7501 68.5172 33.2834C67.1339 34.5501 65.2839 35.2501 63.3339 35.2501ZM63.3339 21.9167C62.1006 21.9167 60.9339 22.3334 59.9505 23.1167C58.6672 24.1334 57.9172 25.6834 57.9172 27.3334C57.9172 28.3167 58.1839 29.2834 58.7005 30.1167C59.6672 31.7501 61.4506 32.7501 63.3339 32.7501C64.6506 32.7501 65.9172 32.2668 66.8839 31.4001C67.3172 31.0334 67.6839 30.6001 67.9506 30.1334C68.4839 29.2834 68.7506 28.3167 68.7506 27.3334C68.7506 24.3501 66.3172 21.9167 63.3339 21.9167Z" fill="#026937"/>
<path d="M65.116 30.3166C64.7994 30.3166 64.4827 30.2 64.2327 29.95L60.716 26.4334C60.2327 25.95 60.2327 25.15 60.716 24.6667C61.1993 24.1834 61.9993 24.1834 62.4827 24.6667L65.9993 28.1833C66.4827 28.6667 66.4827 29.4667 65.9993 29.95C65.7493 30.2 65.4327 30.3166 65.116 30.3166Z" fill="#026937"/>
<path d="M61.5497 30.3665C61.2331 30.3665 60.9165 30.2498 60.6665 29.9998C60.1831 29.5165 60.1831 28.7165 60.6665 28.2331L64.1831 24.7165C64.6664 24.2332 65.4664 24.2332 65.9498 24.7165C66.4331 25.1998 66.4331 25.9998 65.9498 26.4832L62.4331 29.9998C62.1831 30.2498 61.8664 30.3665 61.5497 30.3665Z" fill="#026937"/>
<path d="M28.044 87H26.892V75.544H31.164C33.484 75.544 34.892 76.824 34.892 78.856C34.892 80.504 34.028 81.656 32.556 82.056L35.004 87H33.724L31.388 82.248H28.044V87ZM28.044 76.584V81.208H31.196C32.78 81.208 33.708 80.344 33.708 78.888C33.708 77.4 32.732 76.584 31.164 76.584H28.044ZM39.5719 87.192C37.2999 87.192 35.7799 85.56 35.7799 83.128C35.7799 80.712 37.2839 79.048 39.4919 79.048C41.5879 79.048 43.0119 80.536 43.0119 82.728V83.272H36.8519C36.9319 85.16 37.9239 86.248 39.5879 86.248C40.8519 86.248 41.6679 85.704 41.9559 84.68H43.0119C42.5959 86.312 41.3959 87.192 39.5719 87.192ZM39.4919 79.992C38.0359 79.992 37.0759 80.952 36.8839 82.472H41.9079C41.9079 80.984 40.9479 79.992 39.4919 79.992ZM44.233 83.144C44.233 80.712 45.721 79.048 47.977 79.048C49.769 79.048 51.081 80.088 51.385 81.688H50.281C49.993 80.616 49.065 80.024 47.993 80.024C46.425 80.024 45.321 81.224 45.321 83.128C45.321 84.968 46.345 86.2 47.913 86.2C49.065 86.2 49.993 85.56 50.297 84.568H51.417C51.049 86.152 49.673 87.192 47.913 87.192C45.721 87.192 44.233 85.576 44.233 83.144ZM52.1493 90.376V89.464H52.9973C53.6693 89.464 54.3413 89.416 54.7253 88.376L55.0613 87.464L51.9253 79.256H53.0933L55.5893 86.008L58.0373 79.256H59.1733L55.6213 88.776C55.1733 89.992 54.4213 90.488 53.3173 90.488C52.8533 90.488 52.5013 90.456 52.1493 90.376ZM59.6549 83.144C59.6549 80.712 61.1429 79.048 63.3989 79.048C65.1909 79.048 66.5029 80.088 66.8069 81.688H65.7029C65.4149 80.616 64.4869 80.024 63.4149 80.024C61.8469 80.024 60.7429 81.224 60.7429 83.128C60.7429 84.968 61.7669 86.2 63.3349 86.2C64.4869 86.2 65.4149 85.56 65.7189 84.568H66.8389C66.4709 86.152 65.0949 87.192 63.3349 87.192C61.1429 87.192 59.6549 85.576 59.6549 83.144ZM69.6634 87H68.5594V75.336H69.6634V87ZM75.2594 87.192C72.9874 87.192 71.4674 85.56 71.4674 83.128C71.4674 80.712 72.9714 79.048 75.1794 79.048C77.2754 79.048 78.6994 80.536 78.6994 82.728V83.272H72.5394C72.6194 85.16 73.6114 86.248 75.2754 86.248C76.5394 86.248 77.3554 85.704 77.6434 84.68H78.6994C78.2834 86.312 77.0834 87.192 75.2594 87.192ZM75.1794 79.992C73.7234 79.992 72.7634 80.952 72.5714 82.472H77.5954C77.5954 80.984 76.6354 79.992 75.1794 79.992ZM86.534 87L83.974 79.256H85.11L86.63 83.928C86.806 84.44 86.95 84.968 87.11 85.592C87.238 84.968 87.494 84.184 87.574 83.928L89.11 79.256H90.246L91.766 83.928C91.91 84.344 92.102 85.016 92.246 85.592C92.406 84.952 92.438 84.76 92.71 83.928L94.246 79.256H95.398L92.774 87H91.702L90.102 82.136C89.91 81.56 89.782 81.08 89.686 80.616C89.574 81.032 89.446 81.496 89.238 82.136L87.638 87H86.534ZM98.6573 87.192C97.0093 87.192 96.0333 86.264 96.0333 84.904C96.0333 83.48 97.1213 82.584 98.9293 82.44L101.489 82.232V81.976C101.489 80.456 100.577 79.976 99.4413 79.976C98.0973 79.976 97.2973 80.584 97.2973 81.624H96.2893C96.2893 80.056 97.5693 79.048 99.4733 79.048C101.265 79.048 102.577 79.944 102.577 81.992V87H101.649L101.505 85.64C101.025 86.616 99.9693 87.192 98.6573 87.192ZM98.9133 86.296C100.545 86.296 101.489 85.16 101.489 83.48V83.064L99.2013 83.24C97.7453 83.368 97.1533 84.008 97.1533 84.872C97.1533 85.816 97.8573 86.296 98.9133 86.296ZM104.137 84.824H105.193C105.193 85.72 105.865 86.28 106.953 86.28C108.153 86.28 108.857 85.768 108.857 84.936C108.857 84.296 108.537 83.928 107.625 83.704L106.297 83.368C104.953 83.032 104.297 82.328 104.297 81.272C104.297 79.912 105.433 79.048 107.097 79.048C108.729 79.048 109.785 79.944 109.833 81.384H108.761C108.729 80.488 108.105 79.96 107.065 79.96C105.977 79.96 105.369 80.424 105.369 81.256C105.369 81.848 105.785 82.264 106.633 82.472L107.961 82.808C109.305 83.144 109.913 83.768 109.913 84.888C109.913 86.28 108.729 87.192 106.969 87.192C105.225 87.192 104.137 86.264 104.137 84.824ZM113.506 87H112.418V80.184H110.866V79.256H112.418V76.808H113.506V79.256H115.058V80.184H113.506V87ZM119.666 87.192C117.394 87.192 115.874 85.56 115.874 83.128C115.874 80.712 117.378 79.048 119.586 79.048C121.682 79.048 123.106 80.536 123.106 82.728V83.272H116.946C117.026 85.16 118.018 86.248 119.682 86.248C120.946 86.248 121.762 85.704 122.05 84.68H123.106C122.69 86.312 121.49 87.192 119.666 87.192ZM119.586 79.992C118.13 79.992 117.17 80.952 116.978 82.472H122.002C122.002 80.984 121.042 79.992 119.586 79.992Z" fill="#121212"/>
</svg>
