<svg width="150" height="112" viewBox="0 0 150 112" fill="none" xmlns="http://www.w3.org/2000/svg">
<rect width="150" height="112" rx="10" fill="#CCE1D7"/>
<path d="M80.4335 56.0835H69.5669C61.3835 56.0835 57.8835 52.5835 57.8835 44.4001V44.1835C57.8835 36.7835 60.8002 33.2168 67.3335 32.6001C68.0002 32.5501 68.6335 33.0501 68.7002 33.7335C68.7669 34.4168 68.2669 35.0335 67.5669 35.1001C62.3335 35.5835 60.3835 38.0501 60.3835 44.2001V44.4168C60.3835 51.2001 62.7835 53.6001 69.5669 53.6001H80.4335C87.2169 53.6001 89.6169 51.2001 89.6169 44.4168V44.2001C89.6169 38.0168 87.6335 35.5501 82.3002 35.1001C81.6169 35.0335 81.1002 34.4335 81.1669 33.7501C81.2335 33.0668 81.8169 32.5501 82.5169 32.6168C89.1502 33.1835 92.1169 36.7668 92.1169 44.2168V44.4335C92.1169 52.5835 88.6169 56.0835 80.4335 56.0835Z" fill="#026937"/>
<path d="M75 45.0499C74.3167 45.0499 73.75 44.4832 73.75 43.7999V22.3333C73.75 21.6499 74.3167 21.0833 75 21.0833C75.6833 21.0833 76.25 21.6499 76.25 22.3333V43.7999C76.25 44.4999 75.6833 45.0499 75 45.0499Z" fill="#026937"/>
<path d="M75.0006 46.9166C74.6839 46.9166 74.3672 46.7999 74.1172 46.5499L68.5339 40.9666C68.0506 40.4832 68.0506 39.6832 68.5339 39.1999C69.0172 38.7166 69.8172 38.7166 70.3006 39.1999L75.0006 43.8999L79.7006 39.1999C80.1839 38.7166 80.9839 38.7166 81.4672 39.1999C81.9506 39.6832 81.9506 40.4832 81.4672 40.9666L75.8839 46.5499C75.6339 46.7999 75.3172 46.9166 75.0006 46.9166Z" fill="#026937"/>
<path d="M19.044 87H17.892V75.544H22.164C24.484 75.544 25.892 76.824 25.892 78.856C25.892 80.504 25.028 81.656 23.556 82.056L26.004 87H24.724L22.388 82.248H19.044V87ZM19.044 76.584V81.208H22.196C23.78 81.208 24.708 80.344 24.708 78.888C24.708 77.4 23.732 76.584 22.164 76.584H19.044ZM30.5719 87.192C28.2999 87.192 26.7799 85.56 26.7799 83.128C26.7799 80.712 28.2839 79.048 30.4919 79.048C32.5879 79.048 34.0119 80.536 34.0119 82.728V83.272H27.8519C27.9319 85.16 28.9239 86.248 30.5879 86.248C31.8519 86.248 32.6679 85.704 32.9559 84.68H34.0119C33.5959 86.312 32.3959 87.192 30.5719 87.192ZM30.4919 79.992C29.0359 79.992 28.0759 80.952 27.8839 82.472H32.9079C32.9079 80.984 31.9479 79.992 30.4919 79.992ZM38.817 87.192C36.561 87.192 35.233 85.464 35.233 83.144C35.233 80.808 36.561 79.048 38.865 79.048C40.145 79.048 41.169 79.608 41.713 80.728V75.336H42.817V87H41.857L41.745 85.416C41.201 86.616 40.113 87.192 38.817 87.192ZM39.009 86.184C40.705 86.184 41.697 84.904 41.697 83.112C41.697 81.336 40.705 80.04 39.009 80.04C37.329 80.04 36.353 81.336 36.353 83.112C36.353 84.904 37.329 86.184 39.009 86.184ZM48.3688 87.192C46.0968 87.192 44.5768 85.56 44.5768 83.128C44.5768 80.712 46.0807 79.048 48.2888 79.048C50.3848 79.048 51.8088 80.536 51.8088 82.728V83.272H45.6488C45.7288 85.16 46.7208 86.248 48.3848 86.248C49.6488 86.248 50.4648 85.704 50.7528 84.68H51.8088C51.3928 86.312 50.1928 87.192 48.3688 87.192ZM48.2888 79.992C46.8328 79.992 45.8728 80.952 45.6808 82.472H50.7048C50.7048 80.984 49.7448 79.992 48.2888 79.992ZM56.8219 87.192C54.5499 87.192 53.0299 85.56 53.0299 83.128C53.0299 80.712 54.5339 79.048 56.7419 79.048C58.8379 79.048 60.2619 80.536 60.2619 82.728V83.272H54.1019C54.1819 85.16 55.1739 86.248 56.8379 86.248C58.1019 86.248 58.9179 85.704 59.2059 84.68H60.2619C59.8459 86.312 58.6459 87.192 56.8219 87.192ZM56.7419 79.992C55.2859 79.992 54.3259 80.952 54.1339 82.472H59.1579C59.1579 80.984 58.1979 79.992 56.7419 79.992ZM63.131 87H62.027V79.256H62.987L63.115 80.36C63.499 79.544 64.363 79.048 65.451 79.048C66.667 79.048 67.579 79.688 67.947 80.696C68.299 79.688 69.243 79.048 70.491 79.048C72.171 79.048 73.275 80.136 73.275 81.928V87H72.203V82.152C72.203 80.824 71.467 80.04 70.283 80.04C68.987 80.04 68.219 81.016 68.219 82.216V87H67.131V82.136C67.131 80.824 66.379 80.056 65.211 80.056C63.915 80.056 63.131 81.016 63.131 82.2V87ZM87.0373 87H80.1733V75.544H87.0213V76.6H81.3253V80.728H86.4933V81.768H81.3253V85.944H87.0373V87ZM91.3604 87.192C89.7124 87.192 88.7364 86.264 88.7364 84.904C88.7364 83.48 89.8244 82.584 91.6324 82.44L94.1924 82.232V81.976C94.1924 80.456 93.2804 79.976 92.1444 79.976C90.8004 79.976 90.0004 80.584 90.0004 81.624H88.9924C88.9924 80.056 90.2724 79.048 92.1764 79.048C93.9684 79.048 95.2804 79.944 95.2804 81.992V87H94.3524L94.2084 85.64C93.7284 86.616 92.6724 87.192 91.3604 87.192ZM91.6164 86.296C93.2484 86.296 94.1924 85.16 94.1924 83.48V83.064L91.9044 83.24C90.4484 83.368 89.8564 84.008 89.8564 84.872C89.8564 85.816 90.5604 86.296 91.6164 86.296ZM101.544 79.16V80.152H100.936C99.5118 80.152 98.5998 81.112 98.5998 82.584V87H97.4958V79.256H98.5358L98.6158 80.456C98.9198 79.624 99.7358 79.08 100.824 79.08C101.064 79.08 101.272 79.096 101.544 79.16ZM104.115 87H103.011V79.256H103.971L104.131 80.6C104.643 79.608 105.667 79.048 106.787 79.048C108.915 79.048 109.795 80.312 109.795 82.264V87H108.691V82.504C108.691 80.696 107.875 80.056 106.595 80.056C105.011 80.056 104.115 81.208 104.115 82.952V87ZM112.54 77.128C112.092 77.128 111.724 76.76 111.724 76.312C111.724 75.864 112.092 75.48 112.54 75.48C112.988 75.48 113.372 75.864 113.372 76.312C113.372 76.76 112.988 77.128 112.54 77.128ZM111.996 87V79.256H113.1V87H111.996ZM116.506 87H115.402V79.256H116.362L116.522 80.6C117.034 79.608 118.058 79.048 119.178 79.048C121.306 79.048 122.186 80.312 122.186 82.264V87H121.082V82.504C121.082 80.696 120.266 80.056 118.986 80.056C117.402 80.056 116.506 81.208 116.506 82.952V87ZM123.858 82.904C123.858 80.792 125.218 79.048 127.49 79.048C128.834 79.048 129.858 79.672 130.354 80.808L130.466 79.256H131.426V86.76C131.426 89.064 129.954 90.568 127.682 90.568C125.698 90.568 124.306 89.448 124.002 87.576H125.106C125.346 88.824 126.306 89.56 127.698 89.56C129.282 89.56 130.338 88.488 130.338 86.872V85.032C129.81 86.12 128.738 86.76 127.41 86.76C125.202 86.76 123.858 85.016 123.858 82.904ZM124.962 82.888C124.962 84.472 125.938 85.768 127.57 85.768C129.25 85.768 130.242 84.552 130.242 82.888C130.242 81.24 129.282 80.024 127.586 80.024C125.922 80.024 124.962 81.32 124.962 82.888Z" fill="#121212"/>
</svg>
